<?xml version="1.0" standalone="no"?><svg xmlns="http://www.w3.org/2000/svg" viewBox="0 0 1440 320"><path fill="#0099ff" fill-opacity="1" d="M0,256L18.5,250.7C36.9,245,74,235,111,224C147.7,213,185,203,222,176C258.5,149,295,107,332,106.7C369.2,107,406,149,443,170.7C480,192,517,192,554,208C590.8,224,628,256,665,266.7C701.5,277,738,267,775,261.3C812.3,256,849,256,886,256C923.1,256,960,256,997,256C1033.8,256,1071,256,1108,250.7C1144.6,245,1182,235,1218,240C1255.4,245,1292,267,1329,261.3C1366.2,256,1403,224,1422,208L1440,192L1440,320L1421.5,320C1403.1,320,1366,320,1329,320C1292.3,320,1255,320,1218,320C1181.5,320,1145,320,1108,320C1070.8,320,1034,320,997,320C960,320,923,320,886,320C849.2,320,812,320,775,320C738.5,320,702,320,665,320C627.7,320,591,320,554,320C516.9,320,480,320,443,320C406.2,320,369,320,332,320C295.4,320,258,320,222,320C184.6,320,148,320,111,320C73.8,320,37,320,18,320L0,320Z"></path></svg>