<?xml version="1.0" standalone="no"?><svg xmlns="http://www.w3.org/2000/svg" viewBox="0 0 1440 320"><path fill="#87cefa" fill-opacity="1" d="M0,32L14.1,74.7C28.2,117,56,203,85,245.3C112.9,288,141,288,169,282.7C197.6,277,226,267,254,245.3C282.4,224,311,192,339,197.3C367.1,203,395,245,424,245.3C451.8,245,480,203,508,186.7C536.5,171,565,181,593,202.7C621.2,224,649,256,678,261.3C705.9,267,734,245,762,229.3C790.6,213,819,203,847,202.7C875.3,203,904,213,932,234.7C960,256,988,288,1016,266.7C1044.7,245,1073,171,1101,160C1129.4,149,1158,203,1186,213.3C1214.1,224,1242,192,1271,149.3C1298.8,107,1327,53,1355,58.7C1383.5,64,1412,128,1426,160L1440,192L1440,320L1425.9,320C1411.8,320,1384,320,1355,320C1327.1,320,1299,320,1271,320C1242.4,320,1214,320,1186,320C1157.6,320,1129,320,1101,320C1072.9,320,1045,320,1016,320C988.2,320,960,320,932,320C903.5,320,875,320,847,320C818.8,320,791,320,762,320C734.1,320,706,320,678,320C649.4,320,621,320,593,320C564.7,320,536,320,508,320C480,320,452,320,424,320C395.3,320,367,320,339,320C310.6,320,282,320,254,320C225.9,320,198,320,169,320C141.2,320,113,320,85,320C56.5,320,28,320,14,320L0,320Z"></path></svg>