<!DOCTYPE svg PUBLIC "-//W3C//DTD SVG 1.1//EN" "http://www.w3.org/Graphics/SVG/1.1/DTD/svg11.dtd">

<!-- Uploaded to: SVG Repo, www.svgrepo.com, Transformed by: SVG Repo Mixer Tools -->
<svg width="100px" height="100px" viewBox="0 0 24 24" fill="none" xmlns="http://www.w3.org/2000/svg">

<g id="SVGRepo_bgCarrier" stroke-width="0"/>

<g id="SVGRepo_tracerCarrier" stroke-linecap="round" stroke-linejoin="round"/>

<g id="SVGRepo_iconCarrier"> <path d="M15.9119 17.9105V18.0131C15.9119 19.8608 14.6766 21.5032 12.8236 21.9138C10.353 22.4271 8.19128 20.5794 8.19128 18.1158V17.9105H15.9119Z" fill="#ffffff"/> <path d="M19.0001 8.87737C19.0001 10.9304 17.5589 13.2913 16.9413 14.1125C16.8384 14.2151 16.8384 14.3178 16.7354 14.5231L16.2207 15.9602C16.1178 16.1655 16.0148 16.2681 15.706 16.2681H8.1913C7.98542 16.2681 7.77953 16.1655 7.67659 15.9602L7.16189 14.5231C7.16189 14.4204 7.05895 14.3178 6.956 14.1125C6.4413 13.2913 5.10306 10.9304 5.00012 8.87737C5.00012 7.02968 5.61777 5.28465 6.956 4.05286C8.29424 2.71842 10.0442 1.99988 12.0001 1.99988C13.956 1.99988 15.706 2.82107 17.0442 4.05286C18.2795 5.3873 19.0001 7.02968 19.0001 8.87737Z" fill="#ffffff"/> </g>

</svg>
