<?xml version="1.0" encoding="UTF-8"?>
<svg version="1.1" xmlns="http://www.w3.org/2000/svg" width="494" height="248">
<path d="M0 0 C0.99 0.495 0.99 0.495 2 1 C1.24203125 2.45019531 1.24203125 2.45019531 0.46875 3.9296875 C-5.14959775 14.44525891 -5.14959775 14.44525891 -5 26 C-1.46241187 33.34964431 7.19942069 37.11539609 14 41 C13.67 41.66 13.34 42.32 13 43 C11.53626953 42.25943359 11.53626953 42.25943359 10.04296875 41.50390625 C8.75786595 40.85666469 7.47270675 40.20953512 6.1875 39.5625 C5.54490234 39.23701172 4.90230469 38.91152344 4.24023438 38.57617188 C-1.14740872 35.8683927 -4.91970106 34.58066904 -11 35 C-13.76441969 36.40759341 -13.76441969 36.40759341 -16 38 C-16.66 38 -17.32 38 -18 38 C-18.28875 38.598125 -18.5775 39.19625 -18.875 39.8125 C-20 42 -20 42 -22 45 C-8.60840476 46.08705523 4.80930997 46.43663053 18.234375 46.875 C47.54042014 47.84781478 47.54042014 47.84781478 61.49707031 48.82763672 C64.74488959 49.05129653 67.99355234 49.26118459 71.2421875 49.47265625 C73.22701715 49.60416117 75.21184649 49.73567226 77.19662476 49.86795044 C79.15220556 49.99765901 81.10796216 50.12470848 83.0637207 50.25170898 C84.27374756 50.33364502 85.48377441 50.41558105 86.73046875 50.5 C87.81739014 50.5721875 88.90431152 50.644375 90.02416992 50.71875 C92.74925508 50.97630174 95.32093136 51.45894764 98 52 C99.53942767 52.11673774 101.0818957 52.1981943 102.625 52.24609375 C103.4905249 52.27719238 104.3560498 52.30829102 105.24780273 52.34033203 C106.15602783 52.37239746 107.06425293 52.40446289 108 52.4375 C120.78353767 53.01711734 120.78353767 53.01711734 126.4375 53.625 C127.38496094 53.72039062 128.33242188 53.81578125 129.30859375 53.9140625 C133.40653072 55.56751167 135.76513042 58.22296406 138 62 C138.55396989 64.97641448 138.7236066 66.99705939 138.5625 69.9375 C138.51935669 71.14092041 138.51935669 71.14092041 138.4753418 72.36865234 C138.39497441 74.20576624 138.2957801 76.04211622 138.18164062 77.87744141 C138.05374448 80.07608616 137.95913114 82.27679322 137.88867188 84.47802734 C137.14281236 107.03435824 131.42816238 125.56421072 122 146 C121.67136963 146.74733398 121.34273926 147.49466797 121.00415039 148.26464844 C119.19078404 151.39846999 116.2904708 152.8144998 113 154 C104.70596532 154.92017931 95.97185817 153.58002104 87.67651367 152.88305664 C85.30789868 152.68711937 82.93834935 152.50850658 80.56835938 152.33007812 C79.04157862 152.20418829 77.51488219 152.07727066 75.98828125 151.94921875 C75.29019852 151.89908127 74.59211578 151.84894379 73.87287903 151.79728699 C68.96752341 151.35784079 65.32898325 150.23556047 61 148 C58.53250276 144.86561162 56.66905412 141.61628393 55 138 C54.649375 139.0725 54.29875 140.145 53.9375 141.25 C52.73090118 144.94077287 50.30154296 146.43727833 46.93383789 148.21923828 C43.82258079 149.47536758 41.08270728 149.41193262 37.75 149.3125 C36.69534546 149.28603394 36.69534546 149.28603394 35.61938477 149.2590332 C34.01241268 149.21486981 32.40569591 149.16071814 30.79931641 149.09863281 C27.58911959 148.98552279 24.37959767 148.92660463 21.16796875 148.8671875 C18.75776908 148.80906528 16.34761155 148.7491684 13.9375 148.6875 C12.78411133 148.66534424 11.63072266 148.64318848 10.44238281 148.62036133 C-3.44996062 148.17016523 -3.44996062 148.17016523 -8.65185547 143.52490234 C-11.07093768 140.78864963 -11.82327634 137.41810207 -13 134 C-14.32 136.97 -15.64 139.94 -17 143 C-17.66 143 -18.32 143 -19 143 C-19 143.66 -19 144.32 -19 145 C-24.02083869 147.00863401 -28.27096286 147.27990223 -33.58203125 147.23046875 C-34.80245369 147.22978142 -34.80245369 147.22978142 -36.04753113 147.2290802 C-37.76290349 147.22607054 -39.47827342 147.21822295 -41.19360352 147.20581055 C-43.79388325 147.18763016 -46.3938041 147.1853007 -48.99414062 147.18554688 C-50.66927386 147.18062753 -52.34440471 147.1747974 -54.01953125 147.16796875 C-54.78546097 147.16685593 -55.55139069 147.1657431 -56.3405304 147.16459656 C-69.45389008 147.0516541 -69.45389008 147.0516541 -74.875 144.8125 C-75.57625 144.544375 -76.2775 144.27625 -77 144 C-77.99 144.66 -78.98 145.32 -80 146 C-83.94409178 146.8520944 -87.76751807 147.14624504 -91.79443359 147.23364258 C-92.92214676 147.26085892 -94.04985992 147.28807526 -95.21174622 147.31611633 C-96.42835434 147.34199326 -97.64496246 147.36787018 -98.8984375 147.39453125 C-101.54828366 147.46074125 -104.19809758 147.52782096 -106.84790039 147.59570312 C-107.53831893 147.6130013 -108.22873747 147.63029947 -108.94007778 147.64812183 C-131.36644924 148.21104736 -153.70966154 148.99449015 -176.0625 151 C-177.03443298 151.08666931 -178.00636597 151.17333862 -179.00775146 151.26263428 C-183.63498657 151.67771805 -188.26129982 152.10213407 -192.88720703 152.53173828 C-199.92214647 153.181217 -206.95983722 153.77891733 -214.00631714 154.28881836 C-215.9128993 154.43100435 -217.81797603 154.59296205 -219.72290039 154.75585938 C-226.31861349 155.22160618 -231.14458106 155.25374984 -237 152 C-241.55970545 147.19799136 -241.78392158 142.18498793 -242.1875 135.875 C-242.29747314 134.46613525 -242.29747314 134.46613525 -242.40966797 133.02880859 C-242.55347611 131.17531707 -242.690747 129.32130426 -242.82080078 127.46679688 C-243.03532417 124.51373918 -243.33119527 121.57109676 -243.625 118.625 C-244.9974484 101.59193498 -244.9974484 101.59193498 -243.3046875 95.49609375 C-242.93163269 92.43991396 -243.94889842 90.79299549 -245.23925781 88.07470703 C-246.78359646 83.86296446 -246.70860119 79.37975383 -246.875 74.9375 C-246.93429688 73.97005859 -246.99359375 73.00261719 -247.0546875 72.00585938 C-247.29330748 66.55861272 -247.24979815 62.62915692 -244 58 C-236.95871916 51.68246763 -224.46520319 52.57191481 -215.46484375 51.9296875 C-214.30610245 51.84373322 -213.14736115 51.75777893 -211.95350647 51.66921997 C-209.51583891 51.49006482 -207.07796168 51.31374185 -204.63989258 51.14013672 C-200.97077453 50.87738286 -197.30281878 50.60139665 -193.63476562 50.32421875 C-183.10086959 49.54724421 -172.5684948 48.82694838 -162.00390625 48.6953125 C-161.23860092 48.67725555 -160.47329559 48.65919861 -159.68479919 48.64059448 C-155.42708644 48.64163636 -153.16672073 49.14105579 -150 52 C-147.95101603 51.86551598 -147.95101603 51.86551598 -146 51 C-145.36320312 50.7628125 -144.72640625 50.525625 -144.0703125 50.28125 C-142.77792121 49.76221735 -141.48624696 49.24139553 -140.1953125 48.71875 C-134.92880916 46.99448556 -129.57133351 46.81920446 -124.07421875 46.76171875 C-123.32719193 46.753647 -122.5801651 46.74557526 -121.8105011 46.73725891 C-120.23640207 46.72349308 -118.66227414 46.71273775 -117.08813477 46.70483398 C-115.49299243 46.69331613 -113.89788859 46.67286709 -112.30297852 46.64331055 C-103.41302931 46.47893694 -95.91499616 46.38215989 -88 51 C-87.21625 50.360625 -86.4325 49.72125 -85.625 49.0625 C-81.93815122 46.16569025 -80.25280186 45.87611479 -75.63232422 45.88647461 C-74.51131317 45.88655014 -73.39030212 45.88662567 -72.23532104 45.88670349 C-71.02071198 45.89186478 -69.80610291 45.89702606 -68.5546875 45.90234375 C-67.31453888 45.9037587 -66.07439026 45.90517365 -64.79666138 45.90663147 C-61.49881867 45.91128904 -58.20102454 45.92027561 -54.90319824 45.93133545 C-51.53833613 45.94156269 -48.17346692 45.94613191 -44.80859375 45.95117188 C-38.20571007 45.96221731 -31.60285901 45.97896753 -25 46 C-24.50514408 44.41269072 -24.01521115 42.82384614 -23.52734375 41.234375 C-23.25398193 40.34975586 -22.98062012 39.46513672 -22.69897461 38.55371094 C-21.40341162 33.8203582 -21.32286985 30.47737488 -23.375 26 C-27.04023426 21.81116085 -31.35478963 19.01646523 -36 16 C-37.20897895 15.18846098 -38.41744766 14.37616027 -39.625 13.5625 C-40.800625 12.7890625 -40.800625 12.7890625 -42 12 C-41.34 11.67 -40.68 11.34 -40 11 C-38.13186683 11.86608073 -36.30404631 12.81980957 -34.5 13.8125 C-27.71432885 17.29066437 -21.87154133 19.90335964 -14.25 18.125 C-10.02542006 15.36277466 -7.70724342 12.20217728 -5 8 C-4.51015625 7.24074219 -4.0203125 6.48148437 -3.515625 5.69921875 C-2.32204034 3.81161154 -1.15048849 1.91408704 0 0 Z M-119 85 C-119 86.98 -119 88.96 -119 91 C-117.68 91 -116.36 91 -115 91 C-115 89.02 -115 87.04 -115 85 C-116.32 85 -117.64 85 -119 85 Z " fill="#393939" transform="translate(256,58)"/>
<path d="M0 0 C1.46106337 4.00733956 2.31534796 7.60172403 2.6328125 11.8515625 C2.71660156 12.95113281 2.80039063 14.05070313 2.88671875 15.18359375 C2.96535156 16.31925781 3.04398437 17.45492187 3.125 18.625 C3.21136719 19.73746094 3.29773438 20.84992188 3.38671875 21.99609375 C3.63121473 25.32977702 3.82813138 28.66182044 4 32 C4.09619629 33.68561035 4.09619629 33.68561035 4.19433594 35.40527344 C4.23075195 36.47551758 4.26716797 37.54576172 4.3046875 38.6484375 C4.36245361 40.08582275 4.36245361 40.08582275 4.42138672 41.55224609 C4 44 4 44 2.31201172 45.75439453 C-0.25872095 47.13938694 -2.42866204 47.73939868 -5.296875 48.28125 C-6.33126709 48.48202148 -7.36565918 48.68279297 -8.43139648 48.88964844 C-9.52653564 49.09106445 -10.6216748 49.29248047 -11.75 49.5 C-12.86640869 49.71430664 -13.98281738 49.92861328 -15.13305664 50.14941406 C-18.41999077 50.77784383 -21.70928236 51.39172669 -25 52 C-25.89251465 52.16564453 -26.7850293 52.33128906 -27.70458984 52.50195312 C-28.90849365 52.7252832 -28.90849365 52.7252832 -30.13671875 52.953125 C-30.8750293 53.09041016 -31.61333984 53.22769531 -32.37402344 53.36914062 C-34.30939409 53.72635527 -36.24644352 54.07444034 -38.18359375 54.421875 C-40.93646707 54.86063776 -40.93646707 54.86063776 -43 56 C-43.65213292 58.02463255 -43.65213292 58.02463255 -44 60 C-42.85144531 59.86722656 -41.70289063 59.73445313 -40.51953125 59.59765625 C-28.09062842 58.17575106 -15.77226037 56.92664326 -3.25 56.875 C-2.45013672 56.87032715 -1.65027344 56.8656543 -0.82617188 56.86083984 C4.87694334 56.87694334 4.87694334 56.87694334 6 58 C6.40755203 61.29693219 6.51630619 64.62090516 6.6875 67.9375 C6.74744141 68.87013672 6.80738281 69.80277344 6.86914062 70.76367188 C6.91619141 71.65505859 6.96324219 72.54644531 7.01171875 73.46484375 C7.08072388 74.69642212 7.08072388 74.69642212 7.15112305 75.95288086 C7 78 7 78 5 80 C2.15605459 80.36476362 -0.61166133 80.61188879 -3.46875 80.78125 C-4.32855972 80.83967575 -5.18836945 80.8981015 -6.07423401 80.95829773 C-8.8823314 81.14735747 -11.69107452 81.32371134 -14.5 81.5 C-16.42250889 81.62704288 -18.34495388 81.75505627 -20.26733398 81.8840332 C-23.14568608 82.07700735 -26.02406343 82.26931614 -28.9026947 82.45808411 C-37.64040001 83.03214994 -46.36770029 83.71048714 -55.09375 84.44140625 C-60.74993633 84.89641153 -66.32443953 85.16575151 -72 85 C-74.02060252 82.97939748 -73.53357908 79.02051044 -73.75390625 76.23828125 C-73.81907944 75.45486862 -73.88425262 74.67145599 -73.95140076 73.86430359 C-74.08882039 72.20080981 -74.22401286 70.5371308 -74.35717773 68.87329102 C-74.56027976 66.34019092 -74.77075074 63.80778749 -74.98242188 61.27539062 C-75.11502475 59.65889032 -75.24719967 58.04235483 -75.37890625 56.42578125 C-75.44139053 55.67242996 -75.50387482 54.91907867 -75.56825256 54.14289856 C-76.47430674 42.71146012 -76.47430674 42.71146012 -74 39 C-71.74438477 38.16064453 -71.74438477 38.16064453 -68.87890625 37.5078125 C-67.80012207 37.26063477 -66.72133789 37.01345703 -65.60986328 36.75878906 C-59.066857 35.38345675 -52.50825494 34.10899535 -45.9375 32.875 C-43.83748345 32.47897069 -41.73767899 32.08190937 -39.63832092 31.68240356 C-37.7579512 31.32477314 -35.8769188 30.97063212 -33.99584961 30.61669922 C-30.96739507 30.05494082 -30.96739507 30.05494082 -28 29 C-28 28.01 -28 27.02 -28 26 C-42.54408456 26.56645397 -42.54408456 26.56645397 -57.0625 27.5625 C-63.35765833 28.08640353 -69.68739385 28.33746637 -76 28 C-79.64051302 24.35948698 -78.11713949 12.86678095 -78.1328125 7.8984375 C-78 6 -78 6 -77 5 C-74.97041734 4.75763133 -72.93308474 4.57994792 -70.89477539 4.42749023 C-68.93121849 4.27744789 -68.93121849 4.27744789 -66.92799377 4.12437439 C-65.48456296 4.01890826 -64.0411167 3.91365348 -62.59765625 3.80859375 C-61.12086313 3.69821679 -59.64409235 3.58754059 -58.16734314 3.47657776 C-55.06123491 3.24422115 -51.95490843 3.0151166 -48.84838867 2.78833008 C-44.89070401 2.49920629 -40.93360837 2.20279144 -36.97664738 1.90394497 C-33.91997969 1.67381978 -30.86304908 1.44735416 -27.80602837 1.22197151 C-26.34889474 1.11417119 -24.89183691 1.0053408 -23.43486214 0.89541435 C-15.61687077 0.30791769 -7.84468143 -0.17811063 0 0 Z " fill="#FCFCFC" transform="translate(98,117)"/>
<path d="M0 0 C8.45879892 -0.21805711 13.01569134 0.56284641 20.01171875 5.40625 C30.4674971 15.86202835 27.04281812 37.99531085 27.31933594 51.74072266 C27.3875821 55.07341026 27.46505032 58.40580726 27.54296875 61.73828125 C27.58779176 63.85415504 27.63208294 65.97004018 27.67578125 68.0859375 C27.69967926 69.0836618 27.72357727 70.08138611 27.74819946 71.10934448 C27.76506805 72.02184967 27.78193665 72.93435486 27.79931641 73.87451172 C27.81628571 74.67976288 27.833255 75.48501404 27.85073853 76.31466675 C27.76171875 78.15625 27.76171875 78.15625 26.76171875 79.15625 C20.23470947 80.0886799 13.78095918 80.25980264 7.19921875 80.28125 C5.98407593 80.28813843 5.98407593 80.28813843 4.74438477 80.29516602 C-1.11492036 80.27961089 -1.11492036 80.27961089 -2.23828125 79.15625 C-2.47506841 76.46389224 -2.6602615 73.79126844 -2.80078125 71.09375 C-2.86555664 69.95583008 -2.86555664 69.95583008 -2.93164062 68.79492188 C-3.03801758 66.91559562 -3.13868059 65.03594756 -3.23828125 63.15625 C-4.22828125 62.82625 -5.21828125 62.49625 -6.23828125 62.15625 C-6.32916016 63.97962891 -6.32916016 63.97962891 -6.421875 65.83984375 C-6.50626457 67.42449228 -6.59091335 69.00912702 -6.67578125 70.59375 C-6.71509766 71.39619141 -6.75441406 72.19863281 -6.79492188 73.02539062 C-7.125 79.04296875 -7.125 79.04296875 -8.23828125 80.15625 C-17.43701145 81.36190881 -26.9695902 81.57755414 -36.23828125 81.15625 C-40.1131911 77.28134015 -38.05370101 62.65517285 -38.1817627 57.4317627 C-38.22141574 55.83527799 -38.26318434 54.23884509 -38.30651855 52.64245605 C-38.45616214 47.07034279 -38.56588007 41.49922135 -38.63424683 35.92550659 C-38.66181617 34.04586858 -38.69975098 32.1663525 -38.74832153 30.28713989 C-39.17079456 13.23707966 -39.17079456 13.23707966 -35.6484375 8.16015625 C-33.984375 6.49926758 -33.984375 6.49926758 -32.23828125 5.15625 C-31.44550781 4.50402466 -31.44550781 4.50402466 -30.63671875 3.83862305 C-25.86586202 0.54449379 -20.81355897 0.49426033 -15.17578125 0.40625 C-14.25200684 0.37950195 -13.32823242 0.35275391 -12.37646484 0.32519531 C-10.52414388 0.27555943 -8.67156469 0.23468859 -6.81884766 0.203125 C-4.54388638 0.1618012 -2.27350801 0.08822733 0 0 Z M-8.23828125 28.15625 C-8.23828125 30.13625 -8.23828125 32.11625 -8.23828125 34.15625 C-6.91828125 34.15625 -5.59828125 34.15625 -4.23828125 34.15625 C-4.23828125 32.17625 -4.23828125 30.19625 -4.23828125 28.15625 C-5.55828125 28.15625 -6.87828125 28.15625 -8.23828125 28.15625 Z " fill="#FDFDFD" transform="translate(145.23828125,114.84375)"/>
<path d="M0 0 C1.26650391 -0.01224609 2.53300781 -0.02449219 3.83789062 -0.03710938 C5.04509766 -0.03904297 6.25230469 -0.04097656 7.49609375 -0.04296875 C9.1675647 -0.04913208 9.1675647 -0.04913208 10.87280273 -0.05541992 C13.5625 0.1875 13.5625 0.1875 15.5625 2.1875 C15.80300903 4.36416626 15.80300903 4.36416626 15.78955078 7.09619141 C15.78939972 8.11709869 15.78924866 9.13800598 15.78909302 10.18984985 C15.77877045 11.29509003 15.76844788 12.4003302 15.7578125 13.5390625 C15.7549826 14.6682309 15.75215271 15.79739929 15.74923706 16.96078491 C15.73801462 20.57812971 15.71290622 24.19522966 15.6875 27.8125 C15.67747287 30.2604131 15.66834656 32.70833007 15.66015625 35.15625 C15.63806857 41.16675064 15.60457074 47.17710783 15.5625 53.1875 C17.5425 52.6925 17.5425 52.6925 19.5625 52.1875 C19.57280746 51.55078873 19.58311493 50.91407745 19.59373474 50.2580719 C19.70156331 43.65623202 19.81617961 37.05453522 19.93481445 30.45288086 C19.97823943 27.98611431 20.01990872 25.51931622 20.05981445 23.05249023 C20.11733445 19.51536534 20.18108075 15.97840034 20.24609375 12.44140625 C20.26280624 11.33100479 20.27951874 10.22060333 20.29673767 9.07655334 C20.31668289 8.05557053 20.33662811 7.03458771 20.35717773 5.98266602 C20.37272202 5.07887711 20.3882663 4.1750882 20.40428162 3.24391174 C20.5625 1.1875 20.5625 1.1875 21.5625 0.1875 C26.03581958 -0.06630234 30.5203346 0.00227279 35 0 C36.26650391 -0.01224609 37.53300781 -0.02449219 38.83789062 -0.03710938 C40.04509766 -0.03904297 41.25230469 -0.04097656 42.49609375 -0.04296875 C44.1675647 -0.04913208 44.1675647 -0.04913208 45.87280273 -0.05541992 C48.5625 0.1875 48.5625 0.1875 50.5625 2.1875 C50.82534696 5.1609918 50.96257766 8.03686405 51.00390625 11.015625 C51.02039719 11.9084317 51.03688812 12.8012384 51.05387878 13.72109985 C51.09600458 16.62672568 51.11463049 19.53159339 51.125 22.4375 C51.12995483 23.4194635 51.13490967 24.401427 51.14001465 25.41314697 C51.15828754 40.76457832 49.54117073 52.96992936 43.5625 67.1875 C42.2425 71.4775 40.9225 75.7675 39.5625 80.1875 C25.0425 80.1875 10.5225 80.1875 -4.4375 80.1875 C-8.92759009 67.83975225 -8.92759009 67.83975225 -10.5625 61.4375 C-11.88883352 56.24595051 -11.88883352 56.24595051 -13.48120117 51.13330078 C-14.86162655 46.29527194 -14.7050916 41.47204454 -14.66796875 36.4765625 C-14.66751053 35.46782074 -14.66705231 34.45907898 -14.6665802 33.41976929 C-14.66357207 31.30017919 -14.65572919 29.18059101 -14.64331055 27.06103516 C-14.62494268 23.80233016 -14.62280182 20.54390784 -14.62304688 17.28515625 C-14.6181354 15.22395586 -14.6123087 13.1627574 -14.60546875 11.1015625 C-14.60435593 10.12248932 -14.6032431 9.14341614 -14.60209656 8.13467407 C-14.59571671 7.23638885 -14.58933685 6.33810364 -14.58276367 5.41259766 C-14.57895187 4.61874664 -14.57514008 3.82489563 -14.57121277 3.00698853 C-14.18333285 -2.27106427 -3.90283059 0.00198013 0 0 Z " fill="#FBFBFB" transform="translate(191.4375,113.8125)"/>
<path d="M0 0 C5.05709837 0.05710274 10.03850106 0.50603224 15.0625 1.05859375 C15.91972656 1.14560547 16.77695312 1.23261719 17.66015625 1.32226562 C23.93490045 1.9934942 23.93490045 1.9934942 25.0625 3.12109375 C25.02200415 6.19566334 24.91045425 9.239337 24.75 12.30859375 C24.70367432 13.26008301 24.65734863 14.21157227 24.60961914 15.19189453 C23.93147975 28.5113561 22.99040158 41.81711914 22.0625 55.12109375 C24.09483249 54.41516863 24.09483249 54.41516863 26.0625 53.12109375 C26.74067721 51.25838356 26.74067721 51.25838356 26.76025391 49.05786133 C26.81355865 48.2197139 26.8668634 47.38156647 26.92178345 46.51802063 C26.96048553 45.60973007 26.99918762 44.70143951 27.0390625 43.765625 C27.0952475 42.83062668 27.1514325 41.89562836 27.20932007 40.93229675 C27.38686892 37.93343886 27.53857271 34.93399825 27.6875 31.93359375 C27.84743427 28.95144579 28.01293941 25.96980034 28.18710327 22.9884491 C28.2942861 21.13243998 28.39272125 19.27589859 28.48110962 17.41889954 C28.76004546 12.3511666 29.45951316 7.9419313 31.0625 3.12109375 C35.52135926 3.2305409 39.97934156 3.36127041 44.4375 3.49609375 C45.70851563 3.52703125 46.97953125 3.55796875 48.2890625 3.58984375 C49.50078125 3.62851563 50.7125 3.6671875 51.9609375 3.70703125 C53.64195557 3.7541626 53.64195557 3.7541626 55.35693359 3.80224609 C58.0625 4.12109375 58.0625 4.12109375 60.0625 6.12109375 C60.12182617 8.80395508 60.12182617 8.80395508 59.85546875 12.203125 C59.76330078 13.44642578 59.67113281 14.68972656 59.57617188 15.97070312 C59.4147168 17.93233398 59.4147168 17.93233398 59.25 19.93359375 C59.15396484 21.19880859 59.05792969 22.46402344 58.95898438 23.76757812 C58.7647938 26.31030167 58.56328114 28.85247649 58.35449219 31.39404297 C58.16435579 33.8209847 57.99714915 36.24986707 57.85644531 38.68017578 C57.47473488 44.99118241 56.75817697 50.48537296 54.4375 56.37109375 C54.04751831 57.41620117 54.04751831 57.41620117 53.6496582 58.48242188 C52.81022333 60.70502494 51.94148607 62.91385146 51.0625 65.12109375 C50.74877441 65.91322266 50.43504883 66.70535156 50.11181641 67.52148438 C44.44878385 81.7348099 44.44878385 81.7348099 43.0625 83.12109375 C28.96368029 83.95961276 13.88094216 83.04643362 0.0625 80.12109375 C-2.23771752 72.88255614 -4.05758953 65.61340349 -5.625 58.18359375 C-5.84994141 57.17619141 -6.07488281 56.16878906 -6.30664062 55.13085938 C-8.82657943 43.22051031 -7.80453978 31.83043655 -6.71069336 19.81982422 C-6.49730688 17.46639142 -6.29412489 15.11221918 -6.09179688 12.7578125 C-5.95893281 11.26166539 -5.8254913 9.76556943 -5.69140625 8.26953125 C-5.6309462 7.56549164 -5.57048615 6.86145203 -5.50819397 6.13607788 C-4.95179364 0.1522873 -4.95179364 0.1522873 0 0 Z " fill="#FCFCFC" transform="translate(323.9375,117.87890625)"/>
<path d="M0 0 C0.91265625 -0.00128906 1.8253125 -0.00257812 2.765625 -0.00390625 C3.72726562 -0.00003906 4.68890625 0.00382812 5.6796875 0.0078125 C6.618125 0.00394531 7.5565625 0.00007813 8.5234375 -0.00390625 C22.43745617 0.01558117 22.43745617 0.01558117 24.5546875 2.1328125 C24.61859912 3.72993933 24.61175294 5.32996409 24.57641602 6.92797852 C24.54627159 8.45945274 24.54627159 8.45945274 24.51551819 10.02186584 C24.47496559 11.68746803 24.47496559 11.68746803 24.43359375 13.38671875 C24.40998276 14.51730209 24.38637177 15.64788544 24.36204529 16.81272888 C24.28518627 20.44037752 24.20125804 24.0678245 24.1171875 27.6953125 C24.06398907 30.14777644 24.01124855 32.60025035 23.95898438 35.05273438 C23.82954121 41.07955313 23.6942866 47.1062209 23.5546875 53.1328125 C24.5446875 53.1328125 25.5346875 53.1328125 26.5546875 53.1328125 C27.32311003 46.78372132 27.79411604 40.49000476 28.0546875 34.1015625 C28.13793316 32.22135028 28.22126901 30.34114206 28.3046875 28.4609375 C28.43131424 25.52675846 28.55638053 22.59252359 28.6796875 19.65820312 C28.80066427 16.80579779 28.92734798 13.95368978 29.0546875 11.1015625 C29.09013672 10.21625854 29.12558594 9.33095459 29.16210938 8.41882324 C29.44147995 2.24602005 29.44147995 2.24602005 30.5546875 1.1328125 C32.61718163 1.10374734 34.68075803 1.14639405 36.7421875 1.21875 C38.62550781 1.28449219 38.62550781 1.28449219 40.546875 1.3515625 C41.20397461 1.37734375 41.86107422 1.403125 42.53808594 1.4296875 C44.54603168 1.50747717 46.55413586 1.57463167 48.5625 1.640625 C58.42710554 2.00523054 58.42710554 2.00523054 59.5546875 3.1328125 C59.58396197 5.41926287 59.5407232 7.70668271 59.46875 9.9921875 C59.44751068 10.69241028 59.42627136 11.39263306 59.40438843 12.11407471 C59.35797995 13.60721521 59.30904074 15.10027881 59.2578125 16.59326172 C59.18143634 18.83156048 59.11343229 21.06998407 59.046875 23.30859375 C58.93571366 26.9235041 58.79191151 30.53618114 58.63317871 34.14929199 C58.56210066 35.9454774 58.52192438 37.74281995 58.48535156 39.54003906 C58.11427731 48.83415467 55.2848309 56.76842256 52.0546875 65.3828125 C51.53632289 66.80807174 51.01938698 68.23385144 50.50390625 69.66015625 C46.76260782 79.92489218 46.76260782 79.92489218 45.5546875 81.1328125 C43.65838582 81.23313591 41.75832757 81.2636276 39.859375 81.265625 C38.08191895 81.26852539 38.08191895 81.26852539 36.26855469 81.27148438 C35.00172852 81.26697266 33.73490234 81.26246094 32.4296875 81.2578125 C31.15770508 81.25587891 29.88572266 81.25394531 28.57519531 81.25195312 C19.86280468 81.21191661 11.22909025 80.9589461 2.5546875 80.1328125 C2.37510498 79.59188965 2.19552246 79.0509668 2.01049805 78.49365234 C1.76082275 77.74293457 1.51114746 76.9922168 1.25390625 76.21875 C0.97981934 75.39084961 0.70573242 74.56294922 0.42333984 73.70996094 C-0.11990405 72.09824577 -0.67723949 70.49113386 -1.25537109 68.89160156 C-8.84123927 47.72195348 -8.28701306 23.27871733 -5.4453125 1.1328125 C-3.85437774 -0.45812226 -2.20139556 0.00299161 0 0 Z " fill="#FDFDFD" transform="translate(253.4453125,114.8671875)"/>
<path d="M0 0 C36.27097031 -1.22007832 76.75081058 6.29253509 104.5078125 31.10058594 C116.00489704 42.87429206 121.96910332 56.14015051 121.86914062 72.45727539 C121.39507656 91.40962092 111.19228126 106.8129652 98.5078125 120.10058594 C96.55147068 121.83339484 94.5506196 123.46813744 92.5078125 125.10058594 C93.7994661 121.56518355 95.44345365 118.39596671 97.32617188 115.14111328 C105.32623602 101.11142593 108.86350572 86.10763367 105.3828125 70.03808594 C100.00331338 51.11021866 87.55996603 38.06909497 70.8203125 28.47558594 C57.42178442 21.06650771 43.42583216 16.37004414 28.5078125 13.10058594 C27.75983398 12.93397461 27.01185547 12.76736328 26.24121094 12.59570312 C0.66772573 7.21357094 -28.93833571 8.20386934 -54.4921875 13.10058594 C-55.43900391 13.27750977 -56.38582031 13.45443359 -57.36132812 13.63671875 C-68.69672773 15.80279016 -79.73453394 18.52350973 -90.64355469 22.30883789 C-96.19260313 24.20044739 -96.19260313 24.20044739 -99.4921875 23.10058594 C-67.52856202 8.89042911 -34.96008902 1.41100673 0 0 Z " fill="#E9E9E9" transform="translate(364.4921875,47.8994140625)"/>
<path d="M0 0 C1.30517578 0.06380859 1.30517578 0.06380859 2.63671875 0.12890625 C35.95387189 1.94113634 67.71670628 10.46012805 91.1171875 35.2421875 C99.07075439 44.5611736 102.76649814 56.84015786 102 69 C99.47820443 84.47536661 92.97038347 95.76154325 82 107 C81.47921875 107.54785156 80.9584375 108.09570312 80.421875 108.66015625 C78.38160692 110.76802357 76.45903498 112.36064335 74 114 C75.40007612 111.06050369 77.03104632 108.40903478 78.8125 105.6875 C86.84071427 92.15591526 89.27681575 77.95997922 86.3359375 62.51171875 C81.06691387 44.84903518 68.26733034 33.97768217 53 25 C51.76830078 24.27490234 51.76830078 24.27490234 50.51171875 23.53515625 C9.38354639 1.30179192 -44.69871421 5.2406976 -87.90087891 17.80126953 C-88.93390137 18.1001709 -89.96692383 18.39907227 -91.03125 18.70703125 C-91.94455078 18.9800708 -92.85785156 19.25311035 -93.79882812 19.53442383 C-96 20 -96 20 -98 19 C-67.48765593 5.47884361 -33.439254 -1.74221323 0 0 Z " fill="#E5E5E5" transform="translate(358,66)"/>
<path d="M0 0 C2.27734375 1.01953125 2.27734375 1.01953125 4 2 C4.99 1.34 5.98 0.68 7 0 C10.06464321 -0.54520806 12.93597168 -0.55270563 16 0 C19.0625 2.5 19.0625 2.5 21 5 C21.515625 4.649375 22.03125 4.29875 22.5625 3.9375 C26.06579842 2.59007753 28.39462669 3.09865667 32 4 C34.92031741 6.28889743 36.54494569 8.60487328 38 12 C39.5778125 11.87625 39.5778125 11.87625 41.1875 11.75 C45.59811663 12.03922076 46.92775835 12.92775835 50 16 C52 19 52 19 51.8125 21.375 C50.8644144 24.43804579 50.06584948 26.52098062 48 29 C44.75 30.1875 44.75 30.1875 41 30 C36.76660727 27.49573951 34.00164068 24.4817223 32 20 C30.700625 20.12375 30.700625 20.12375 29.375 20.25 C24.41090139 19.88228899 21.45010174 17.45010174 18 14 C17.34 14.33 16.68 14.66 16 15 C8.53333333 15.35555556 8.53333333 15.35555556 5 13 C4.48953125 13.30679687 3.9790625 13.61359375 3.453125 13.9296875 C0.24964807 15.32738285 -2.78868061 15.67631045 -6.25 16.125 C-7.51328125 16.29257812 -8.7765625 16.46015625 -10.078125 16.6328125 C-11.04234375 16.75398438 -12.0065625 16.87515625 -13 17 C-13.144375 15.88625 -13.28875 14.7725 -13.4375 13.625 C-13.78372035 10.17857953 -13.78372035 10.17857953 -15 8 C-14.83219367 4.72777656 -14.45369859 3.41116435 -12 1.1875 C-7.9786057 -0.40430191 -4.27774186 -0.58924172 0 0 Z " fill="#626262" transform="translate(252,14)"/>
<path d="M0 0 C3.279375 -0.061875 6.55875 -0.12375 9.9375 -0.1875 C11.45911743 -0.22846802 11.45911743 -0.22846802 13.01147461 -0.27026367 C19.76716329 -0.33123204 26.78771674 0.17708441 32.0625 4.8125 C33.52103873 8.21575704 33.49953317 11.35527854 32.42578125 14.890625 C31.90513457 17.46997552 32.30208791 19.20835166 32.9375 21.75 C33.13214844 22.54921875 33.32679688 23.3484375 33.52734375 24.171875 C33.68332031 24.77515625 33.83929688 25.3784375 34 26 C31.89758397 26.13496251 29.7927039 26.23197307 27.6875 26.3125 C26.51574219 26.37050781 25.34398437 26.42851562 24.13671875 26.48828125 C22.58404297 26.24658203 22.58404297 26.24658203 21 26 C19.21875 23.53125 19.21875 23.53125 18 21 C15.91466367 20.12177688 15.91466367 20.12177688 14 20 C14 21.98 14 23.96 14 26 C9.38 26 4.76 26 0 26 C0 17.42 0 8.84 0 0 Z " fill="#FCFCFC" transform="translate(97,214)"/>
<path d="M0 0 C3.63248345 2.1719224 5.26159021 4.22011873 6.4375 8.375 C6.70423045 13.24498183 6.18481137 16.39934349 3.1875 20.3125 C-2.98729815 24.94359861 -9.06170732 25.15228422 -16.5625 24.375 C-21.0747581 23.11041811 -23.77016976 21.40743031 -26.625 17.6875 C-27.8654316 13.30464168 -27.88519162 9.74633451 -26.5625 5.375 C-20.31890923 -2.77635461 -9.18808218 -4.08359208 0 0 Z M-12.5625 9.375 C-12.5625 10.695 -12.5625 12.015 -12.5625 13.375 C-10.9125 13.045 -9.2625 12.715 -7.5625 12.375 C-7.8925 11.385 -8.2225 10.395 -8.5625 9.375 C-9.8825 9.375 -11.2025 9.375 -12.5625 9.375 Z " fill="#FBFBFB" transform="translate(202.5625,215.625)"/>
<path d="M0 0 C3.63248345 2.1719224 5.26159021 4.22011873 6.4375 8.375 C6.70423045 13.24498183 6.18481137 16.39934349 3.1875 20.3125 C-2.98729815 24.94359861 -9.06170732 25.15228422 -16.5625 24.375 C-21.0747581 23.11041811 -23.77016976 21.40743031 -26.625 17.6875 C-27.8654316 13.30464168 -27.88519162 9.74633451 -26.5625 5.375 C-20.31890923 -2.77635461 -9.18808218 -4.08359208 0 0 Z M-12.5625 9.375 C-12.5625 10.695 -12.5625 12.015 -12.5625 13.375 C-10.9125 13.045 -9.2625 12.715 -7.5625 12.375 C-7.8925 11.385 -8.2225 10.395 -8.5625 9.375 C-9.8825 9.375 -11.2025 9.375 -12.5625 9.375 Z " fill="#FBFBFB" transform="translate(81.5625,215.625)"/>
<path d="M0 0 C2.71167312 2.07894939 3.52359582 4.16860204 4.3359375 7.41796875 C4.587989 12.4589988 3.19162331 15.96899654 0.1484375 19.98046875 C-5.4346973 24.06045187 -11.8664577 23.86151602 -18.4765625 23.16796875 C-22.69701618 21.92468224 -25.55687873 20.20261299 -28.4765625 16.91796875 C-30.21369403 12.14085705 -30.30060786 8.02207081 -28.2265625 3.35546875 C-21.46064861 -5.10192362 -9.00930679 -4.96082083 0 0 Z M-15.4765625 8.16796875 C-15.4765625 9.48796875 -15.4765625 10.80796875 -15.4765625 12.16796875 C-13.8265625 12.16796875 -12.1765625 12.16796875 -10.4765625 12.16796875 C-10.4765625 10.84796875 -10.4765625 9.52796875 -10.4765625 8.16796875 C-12.1265625 8.16796875 -13.7765625 8.16796875 -15.4765625 8.16796875 Z " fill="#FAFAFA" transform="translate(387.4765625,216.83203125)"/>
<path d="M0 0 C3.63699709 2.27312318 5.1681774 3.99153609 7 7.875 C7.84545715 12.24174259 7.33641545 15.16179924 5.4375 19.1875 C1.68693669 23.32273647 -1.46432855 24.62694518 -6.875 25.15625 C-12.97241559 25.33917247 -17.75970193 25.1083754 -23 21.875 C-25.77730225 18.44966056 -26.73170267 15.25718964 -27 10.875 C-26.01221025 6.38504661 -24.59610196 3.75188157 -21 0.875 C-14.65664 -2.17112296 -6.64570918 -2.43100617 0 0 Z M-12 9.875 C-12 11.195 -12 12.515 -12 13.875 C-10.35 13.875 -8.7 13.875 -7 13.875 C-7 12.555 -7 11.235 -7 9.875 C-8.65 9.875 -10.3 9.875 -12 9.875 Z " fill="#FBFBFB" transform="translate(281,215.125)"/>
<path d="M0 0 C3.3 -0.04125 6.6 -0.0825 10 -0.125 C11.02351563 -0.14320801 12.04703125 -0.16141602 13.1015625 -0.18017578 C26.48836017 -0.26047584 26.48836017 -0.26047584 31.5 4.25 C33.31061196 7.56945525 33.62127371 9.27235774 33 13 C31.46128157 15.82098378 30.21111588 17.49296016 27.19921875 18.75390625 C22.76086407 19.98630376 18.58351722 20.19097988 14 20 C14 21.98 14 23.96 14 26 C9.38 26 4.76 26 0 26 C0 17.42 0 8.84 0 0 Z " fill="#FBFBFB" transform="translate(13,214)"/>
<path d="M0 0 C1.38938077 1.96147874 2.7260411 3.96166576 4 6 C4.928125 5.484375 5.85625 4.96875 6.8125 4.4375 C10 3 10 3 13 4 C13.495 6.475 13.495 6.475 14 9 C11.9007236 10.3416203 9.7962168 11.67336839 7.6875 13 C7.09259766 13.3815625 6.49769531 13.763125 5.88476562 14.15625 C1.33984375 17 1.33984375 17 -2 17 C-2.0825 17.7425 -2.165 18.485 -2.25 19.25 C-3.16752658 22.61426412 -4.26219512 23.87059621 -7 26 C-9.75 26.75 -9.75 26.75 -12 27 C-11.87625 28.794375 -11.87625 28.794375 -11.75 30.625 C-11.7739965 35.12834297 -12.8313869 37.66889392 -16 41 C-19.5625 42.0625 -19.5625 42.0625 -23 42 C-24.9375 40.5625 -24.9375 40.5625 -26 39 C-23.25 33.125 -23.25 33.125 -21 32 C-22.98 31.01 -24.96 30.02 -27 29 C-25.125 23.25 -25.125 23.25 -24 21 C-23.01 21 -22.02 21 -21 21 C-21 19.68 -21 18.36 -21 17 C-18.5 14.75 -18.5 14.75 -16 13 C-13.525 14.98 -13.525 14.98 -11 17 C-12.32 15.68 -13.64 14.36 -15 13 C-13.53781513 8.3697479 -13.53781513 8.3697479 -11 6.625 C-9 6 -9 6 -7 7 C-7.33 6.01 -7.66 5.02 -8 4 C-2.25 0 -2.25 0 0 0 Z " fill="#6C6C6C" transform="translate(223,23)"/>
<path d="M0 0 C9.24 0 18.48 0 28 0 C28 3.3 28 6.6 28 10 C27.34 10 26.68 10 26 10 C26 12.31 26 14.62 26 17 C22.04 17 18.08 17 14 17 C14 19.97 14 22.94 14 26 C9.38 26 4.76 26 0 26 C0 17.42 0 8.84 0 0 Z " fill="#F8F8F8" transform="translate(218,214)"/>
<path d="M0 0 C4.62 0 9.24 0 14 0 C14 4.95 14 9.9 14 15 C18.95 15 23.9 15 29 15 C29 18.63 29 22.26 29 26 C19.43 26 9.86 26 0 26 C0 17.42 0 8.84 0 0 Z " fill="#868686" transform="translate(297,214)"/>
<path d="M0 0 C9.57 0 19.14 0 29 0 C29 3.3 29 6.6 29 10 C26.36 10 23.72 10 21 10 C21 15.28 21 20.56 21 26 C16.71 26 12.42 26 8 26 C8 20.72 8 15.44 8 10 C5.36 10 2.72 10 0 10 C0 6.7 0 3.4 0 0 Z " fill="#F8F8F8" transform="translate(138,214)"/>
<path d="M0 0 C0.66 0.33 1.32 0.66 2 1 C1.4946875 1.96679688 0.989375 2.93359375 0.46875 3.9296875 C-5.14959775 14.44525891 -5.14959775 14.44525891 -5 26 C-1.46241187 33.34964431 7.19942069 37.11539609 14 41 C13.505 41.99 13.505 41.99 13 43 C12.02417969 42.50628906 11.04835938 42.01257813 10.04296875 41.50390625 C8.75786595 40.85666469 7.47270675 40.20953512 6.1875 39.5625 C5.54490234 39.23701172 4.90230469 38.91152344 4.24023438 38.57617188 C-1.14740872 35.8683927 -4.91970106 34.58066904 -11 35 C-13.76441969 36.40759341 -13.76441969 36.40759341 -16 38 C-16.66 38 -17.32 38 -18 38 C-18.2475 38.5775 -18.495 39.155 -18.75 39.75 C-20.16683317 42.3002997 -21.87627537 44.01785701 -24 46 C-23.54177532 42.53058454 -23.10868317 39.32604951 -22 36 C-21.63036342 32.08185224 -21.72588623 29.59806642 -23.375 26 C-27.04023426 21.81116085 -31.35478963 19.01646523 -36 16 C-37.20897895 15.18846098 -38.41744766 14.37616027 -39.625 13.5625 C-40.40875 13.046875 -41.1925 12.53125 -42 12 C-41.34 11.67 -40.68 11.34 -40 11 C-38.13186683 11.86608073 -36.30404631 12.81980957 -34.5 13.8125 C-27.71432885 17.29066437 -21.87154133 19.90335964 -14.25 18.125 C-10.02542006 15.36277466 -7.70724342 12.20217728 -5 8 C-4.26523438 6.86111328 -4.26523438 6.86111328 -3.515625 5.69921875 C-2.32204034 3.81161154 -1.15048849 1.91408704 0 0 Z " fill="#DFDFDF" transform="translate(256,58)"/>
<path d="M0 0 C2.27734375 1.01953125 2.27734375 1.01953125 4 2 C4.99 1.34 5.98 0.68 7 0 C9.15625 -0.265625 9.15625 -0.265625 11.5 -0.25 C12.2734375 -0.25515625 13.046875 -0.2603125 13.84375 -0.265625 C16 0 16 0 19 2 C19.3984375 4.27734375 19.3984375 4.27734375 19.375 6.9375 C19.38660156 8.25041016 19.38660156 8.25041016 19.3984375 9.58984375 C19 12 19 12 17.7265625 13.796875 C15.64250755 15.24911239 14.51967123 15.37453736 12 15.3125 C10.9790625 15.30669922 10.9790625 15.30669922 9.9375 15.30078125 C8 15 8 15 5 13 C4.48953125 13.30679687 3.9790625 13.61359375 3.453125 13.9296875 C0.24964807 15.32738285 -2.78868061 15.67631045 -6.25 16.125 C-7.51328125 16.29257812 -8.7765625 16.46015625 -10.078125 16.6328125 C-11.04234375 16.75398438 -12.0065625 16.87515625 -13 17 C-13.144375 15.88625 -13.28875 14.7725 -13.4375 13.625 C-13.78372035 10.17857953 -13.78372035 10.17857953 -15 8 C-14.83219367 4.72777656 -14.45369859 3.41116435 -12 1.1875 C-7.9786057 -0.40430191 -4.27774186 -0.58924172 0 0 Z " fill="#656565" transform="translate(252,14)"/>
<path d="M0 0 C0.87785156 -0.00773437 1.75570312 -0.01546875 2.66015625 -0.0234375 C3.78744141 0.17378906 3.78744141 0.17378906 4.9375 0.375 C7.30945497 3.93293245 7.12302303 5.36495433 7 9.5625 C6.91486077 14.63679837 7.1519822 19.367324 7.9375 24.375 C6.803125 24.643125 5.66875 24.91125 4.5 25.1875 C3.324375 25.579375 2.14875 25.97125 0.9375 26.375 C0.6075 27.365 0.2775 28.355 -0.0625 29.375 C-2.0425 29.375 -4.0225 29.375 -6.0625 29.375 C-7.25537411 25.49815913 -8.0625 22.45878077 -8.0625 18.375 C-7.0725 18.045 -6.0825 17.715 -5.0625 17.375 C-5.54976562 16.9934375 -6.03703125 16.611875 -6.5390625 16.21875 C-8.60648516 13.71663847 -8.46338497 12.08473672 -8.4375 8.875 C-8.44523438 7.9159375 -8.45296875 6.956875 -8.4609375 5.96875 C-8.0625 3.375 -8.0625 3.375 -6.85546875 1.5546875 C-4.47236269 -0.01328206 -2.83621199 -0.02506226 0 0 Z " fill="#686868" transform="translate(198.0625,68.625)"/>
<path d="M0 0 C4.62 0 9.24 0 14 0 C14 8.58 14 17.16 14 26 C9.38 26 4.76 26 0 26 C0 17.42 0 8.84 0 0 Z " fill="#545454" transform="translate(335,214)"/>
<path d="M0 0 C3.279375 -0.061875 6.55875 -0.12375 9.9375 -0.1875 C11.45911743 -0.22846802 11.45911743 -0.22846802 13.01147461 -0.27026367 C19.76716329 -0.33123204 26.78771674 0.17708441 32.0625 4.8125 C33.52103873 8.21575704 33.49953317 11.35527854 32.42578125 14.890625 C31.90513457 17.46997552 32.30208791 19.20835166 32.9375 21.75 C33.13214844 22.54921875 33.32679688 23.3484375 33.52734375 24.171875 C33.68332031 24.77515625 33.83929688 25.3784375 34 26 C31.89758397 26.13496251 29.7927039 26.23197307 27.6875 26.3125 C26.51574219 26.37050781 25.34398437 26.42851562 24.13671875 26.48828125 C22.58404297 26.24658203 22.58404297 26.24658203 21 26 C19.21875 23.53125 19.21875 23.53125 18 21 C15.91466367 20.12177688 15.91466367 20.12177688 14 20 C14 21.98 14 23.96 14 26 C9.38 26 4.76 26 0 26 C0 17.42 0 8.84 0 0 Z M3 3 C3 9.6 3 16.2 3 23 C5.64 23 8.28 23 11 23 C11 21.02 11 19.04 11 17 C16.42316818 17.26671319 16.42316818 17.26671319 19 18 C19.495 18.845625 19.99 19.69125 20.5 20.5625 C20.995 21.366875 21.49 22.17125 22 23 C24.78812935 23.46934442 27.14982987 23.2336205 30 23 C29.67 21.02 29.34 19.04 29 17 C28.34 17 27.68 17 27 17 C27.495 16.46375 27.99 15.9275 28.5 15.375 C30.42109443 12.33326715 30.45185216 10.53950857 30 7 C28.14657225 4.44050454 27.06243607 4.02081202 24 3 C22.37280518 2.91856145 20.74248281 2.8924698 19.11328125 2.90234375 C18.17548828 2.90556641 17.23769531 2.90878906 16.27148438 2.91210938 C15.29501953 2.92048828 14.31855469 2.92886719 13.3125 2.9375 C12.32443359 2.94201172 11.33636719 2.94652344 10.31835938 2.95117188 C7.87888042 2.9629568 5.43943259 2.98089217 3 3 Z " fill="#494949" transform="translate(97,214)"/>
<path d="M0 0 C9.24 0 18.48 0 28 0 C28 3.3 28 6.6 28 10 C27.34 10 26.68 10 26 10 C26 12.31 26 14.62 26 17 C22.04 17 18.08 17 14 17 C14 19.97 14 22.94 14 26 C9.38 26 4.76 26 0 26 C0 17.42 0 8.84 0 0 Z M2 3 C2 9.6 2 16.2 2 23 C4.97 23 7.94 23 11 23 C11 20.36 11 17.72 11 15 C14.96 15 18.92 15 23 15 C23 13.68 23 12.36 23 11 C19.04 11 15.08 11 11 11 C11 10.01 11 9.02 11 8 C15.95 8 20.9 8 26 8 C26 6.35 26 4.7 26 3 C18.08 3 10.16 3 2 3 Z " fill="#666666" transform="translate(218,214)"/>
<path d="M0 0 C3.3 -0.04125 6.6 -0.0825 10 -0.125 C11.02351563 -0.14320801 12.04703125 -0.16141602 13.1015625 -0.18017578 C26.48836017 -0.26047584 26.48836017 -0.26047584 31.5 4.25 C33.31061196 7.56945525 33.62127371 9.27235774 33 13 C31.46128157 15.82098378 30.21111588 17.49296016 27.19921875 18.75390625 C22.76086407 19.98630376 18.58351722 20.19097988 14 20 C14 21.98 14 23.96 14 26 C9.38 26 4.76 26 0 26 C0 17.42 0 8.84 0 0 Z M3 3 C3 9.6 3 16.2 3 23 C5.64 23 8.28 23 11 23 C11 21.02 11 19.04 11 17 C11.95261719 17.03480469 12.90523437 17.06960937 13.88671875 17.10546875 C15.14097656 17.13253906 16.39523438 17.15960938 17.6875 17.1875 C18.92886719 17.22230469 20.17023437 17.25710937 21.44921875 17.29296875 C25.23771251 16.98038676 27.11056275 16.45164373 30 14 C30.60024521 11.95714939 30.60024521 11.95714939 30.3125 9.8125 C30.209375 8.554375 30.10625 7.29625 30 6 C24.41523931 2.41785552 19.51742747 2.6435944 13.125 2.8125 C11.66320312 2.83280273 11.66320312 2.83280273 10.171875 2.85351562 C7.78100991 2.88867541 5.39043157 2.94247625 3 3 Z " fill="#373737" transform="translate(13,214)"/>
<path d="M0 0 C1.38938077 1.96147874 2.7260411 3.96166576 4 6 C5.3921875 5.2265625 5.3921875 5.2265625 6.8125 4.4375 C10 3 10 3 13 4 C13.33 5.65 13.66 7.3 14 9 C11.9007236 10.3416203 9.7962168 11.67336839 7.6875 13 C7.09259766 13.3815625 6.49769531 13.763125 5.88476562 14.15625 C1.33984375 17 1.33984375 17 -2 17 C-2.12375 17.804375 -2.2475 18.60875 -2.375 19.4375 C-2.58125 20.283125 -2.7875 21.12875 -3 22 C-3.66 22.33 -4.32 22.66 -5 23 C-4.78730469 22.11248047 -4.78730469 22.11248047 -4.5703125 21.20703125 C-4.1041491 18.70038068 -3.81682074 16.54746964 -4 14 C-5.74249549 11.51396409 -7.33337774 10.62088804 -10 9 C-10.66 9 -11.32 9 -12 9 C-11.45773019 12.79588866 -9.79872437 14.47211993 -7 17 C-7.33 17.99 -7.66 18.98 -8 20 C-9.65 19.67 -11.3 19.34 -13 19 C-13 18.01 -13 17.02 -13 16 C-12.67 16 -12.34 16 -12 16 C-12.99 15.01 -13.98 14.02 -15 13 C-13.53781513 8.3697479 -13.53781513 8.3697479 -11 6.625 C-9 6 -9 6 -7 7 C-7.33 6.01 -7.66 5.02 -8 4 C-2.25 0 -2.25 0 0 0 Z " fill="#575757" transform="translate(223,23)"/>
<path d="M0 0 C3.63248345 2.1719224 5.26159021 4.22011873 6.4375 8.375 C6.70423045 13.24498183 6.18481137 16.39934349 3.1875 20.3125 C-2.98729815 24.94359861 -9.06170732 25.15228422 -16.5625 24.375 C-21.0747581 23.11041811 -23.77016976 21.40743031 -26.625 17.6875 C-27.8654316 13.30464168 -27.88519162 9.74633451 -26.5625 5.375 C-20.31890923 -2.77635461 -9.18808218 -4.08359208 0 0 Z M-23.5625 5.375 C-25.09464888 8.43929776 -24.79188548 10.9915642 -24.5625 14.375 C-23.33363652 17.13994284 -22.41294025 18.81133611 -19.8828125 20.48828125 C-14.44994879 22.56447664 -6.81708647 22.54022232 -1.34765625 20.58203125 C1.43176389 18.80836705 2.38980651 17.51808047 3.4375 14.375 C3.93781206 10.95928147 3.93781206 10.95928147 3.4375 7.375 C1.2647578 4.74483839 -0.50923788 2.90163106 -3.5625 1.375 C-6.01737423 1.19778423 -8.41811664 1.09763179 -10.875 1.0625 C-12.19113281 1.02511719 -13.50726563 0.98773438 -14.86328125 0.94921875 C-19.06472832 1.43280664 -20.62626487 2.40571157 -23.5625 5.375 Z " fill="#6B6B6B" transform="translate(202.5625,215.625)"/>
<path d="M0 0 C3.63248345 2.1719224 5.26159021 4.22011873 6.4375 8.375 C6.70423045 13.24498183 6.18481137 16.39934349 3.1875 20.3125 C-2.98729815 24.94359861 -9.06170732 25.15228422 -16.5625 24.375 C-21.0747581 23.11041811 -23.77016976 21.40743031 -26.625 17.6875 C-27.8654316 13.30464168 -27.88519162 9.74633451 -26.5625 5.375 C-20.31890923 -2.77635461 -9.18808218 -4.08359208 0 0 Z M-23.5625 5.375 C-25.09464888 8.43929776 -24.79188548 10.9915642 -24.5625 14.375 C-23.33363652 17.13994284 -22.41294025 18.81133611 -19.8828125 20.48828125 C-14.44994879 22.56447664 -6.81708647 22.54022232 -1.34765625 20.58203125 C1.43176389 18.80836705 2.38980651 17.51808047 3.4375 14.375 C3.93781206 10.95928147 3.93781206 10.95928147 3.4375 7.375 C1.2647578 4.74483839 -0.50923788 2.90163106 -3.5625 1.375 C-6.01737423 1.19778423 -8.41811664 1.09763179 -10.875 1.0625 C-12.19113281 1.02511719 -13.50726563 0.98773438 -14.86328125 0.94921875 C-19.06472832 1.43280664 -20.62626487 2.40571157 -23.5625 5.375 Z " fill="#6B6B6B" transform="translate(81.5625,215.625)"/>
<path d="M0 0 C3.63699709 2.27312318 5.1681774 3.99153609 7 7.875 C7.84545715 12.24174259 7.33641545 15.16179924 5.4375 19.1875 C1.68693669 23.32273647 -1.46432855 24.62694518 -6.875 25.15625 C-12.97241559 25.33917247 -17.75970193 25.1083754 -23 21.875 C-25.77730225 18.44966056 -26.73170267 15.25718964 -27 10.875 C-26.01221025 6.38504661 -24.59610196 3.75188157 -21 0.875 C-14.65664 -2.17112296 -6.64570918 -2.43100617 0 0 Z M-22 4.875 C-24.32826375 8.09022137 -24.39711181 10.98330425 -24 14.875 C-22.27788114 18.66366148 -20.87175913 20.41088941 -17 21.875 C-13.66369674 22.22977675 -13.66369674 22.22977675 -10.0625 22.1875 C-8.85722656 22.20425781 -7.65195312 22.22101563 -6.41015625 22.23828125 C-2.73764225 21.84705124 -0.91234917 21.09963881 2 18.875 C4.67089167 14.86866249 4.70693873 11.58508572 4 6.875 C1.80168636 3.84284325 0.55036806 3.05845602 -3 1.875 C-5.28851645 1.72880485 -7.58200316 1.65408664 -9.875 1.625 C-11.08929688 1.59921875 -12.30359375 1.5734375 -13.5546875 1.546875 C-17.2414572 1.89799592 -19.0621693 2.67834048 -22 4.875 Z " fill="#676767" transform="translate(281,215.125)"/>
<path d="M0 0 C2.64 0 5.28 0 8 0 C8 4.95 8 9.9 8 15 C13.28 15 18.56 15 24 15 C24 16.65 24 18.3 24 20 C16.08 20 8.16 20 0 20 C0 13.4 0 6.8 0 0 Z " fill="#FDFDFD" transform="translate(300,217)"/>
<path d="M0 0 C2.71167312 2.07894939 3.52359582 4.16860204 4.3359375 7.41796875 C4.587989 12.4589988 3.19162331 15.96899654 0.1484375 19.98046875 C-5.4346973 24.06045187 -11.8664577 23.86151602 -18.4765625 23.16796875 C-22.69701618 21.92468224 -25.55687873 20.20261299 -28.4765625 16.91796875 C-30.21369403 12.14085705 -30.30060786 8.02207081 -28.2265625 3.35546875 C-21.46064861 -5.10192362 -9.00930679 -4.96082083 0 0 Z M-24.4140625 2.10546875 C-26.8229092 5.68224112 -27.22773033 7.77545124 -26.9453125 12.01171875 C-26.25645986 15.18044091 -24.80856695 16.97314103 -22.4765625 19.16796875 C-19.56655453 20.62297274 -16.9676292 20.37694259 -13.7265625 20.41796875 C-11.90898437 20.45664063 -11.90898437 20.45664063 -10.0546875 20.49609375 C-6.16736115 20.13961404 -3.79470712 19.18150161 -0.4765625 17.16796875 C1.91544574 14.01486698 1.91802322 11.03490877 1.5234375 7.16796875 C-0.20045822 3.37539817 -1.60046569 1.62955343 -5.4765625 0.16796875 C-15.33352729 -0.97305138 -15.33352729 -0.97305138 -24.4140625 2.10546875 Z " fill="#757575" transform="translate(387.4765625,216.83203125)"/>
<path d="M0 0 C9.57 0 19.14 0 29 0 C29 3.3 29 6.6 29 10 C26.36 10 23.72 10 21 10 C21 15.28 21 20.56 21 26 C16.71 26 12.42 26 8 26 C8 20.72 8 15.44 8 10 C5.36 10 2.72 10 0 10 C0 6.7 0 3.4 0 0 Z M2 3 C2 4.65 2 6.3 2 8 C4.64 8 7.28 8 10 8 C10 12.95 10 17.9 10 23 C12.97 23 15.94 23 19 23 C19 18.05 19 13.1 19 8 C21.64 8 24.28 8 27 8 C27 6.35 27 4.7 27 3 C18.75 3 10.5 3 2 3 Z " fill="#737373" transform="translate(138,214)"/>
<path d="M0 0 C2.64 0 5.28 0 8 0 C8 6.6 8 13.2 8 20 C5.36 20 2.72 20 0 20 C0 13.4 0 6.8 0 0 Z " fill="#FEFEFE" transform="translate(338,217)"/>
<path d="M0 0 C1.918125 0.1546875 1.918125 0.1546875 3.875 0.3125 C4.95394531 0.39951172 4.95394531 0.39951172 6.0546875 0.48828125 C8 1 8 1 10 4 C10.046875 6.19140625 10.046875 6.19140625 9.75 8.5625 C9.66234375 9.34753906 9.5746875 10.13257812 9.484375 10.94140625 C9 13 9 13 7 15 C3.46782421 14.67889311 0.36550494 14.12183498 -3 13 C-3.4726477 4.80743982 -3.4726477 4.80743982 -1.5 1.4375 C-0.7575 0.7259375 -0.7575 0.7259375 0 0 Z " fill="#E1E1E1" transform="translate(194,70)"/>
<path d="M0 0 C4.02342383 0.61898828 6.87770417 2.44539432 10 5 C10.375 7.75 10.375 7.75 10 10 C9.01 10.33 8.02 10.66 7 11 C6.26676204 13.01508358 6.26676204 13.01508358 6 15 C2.0914828 14.72731275 0.21403214 14.16393951 -2.9375 11.75 C-5 9 -5 9 -4.8125 6.1875 C-4.544375 5.465625 -4.27625 4.74375 -4 4 C-3.34 4 -2.68 4 -2 4 C-1.34 2.68 -0.68 1.36 0 0 Z " fill="#E8E8E8" transform="translate(292,27)"/>
<path d="M0 0 C4.09176955 0.30309404 7.46165096 0.87699058 11 3 C11.21931821 6.21666704 11.26828383 8.43362303 9.875 11.375 C8 13 8 13 5.125 13.5 C1.21467321 12.87434771 -0.43661487 12.02945515 -3 9 C-2.93113135 5.00561826 -2.8685771 2.8685771 0 0 Z " fill="#F5F5F5" transform="translate(276,19)"/>
<path d="M0 0 C4.62 0 9.24 0 14 0 C14 4.95 14 9.9 14 15 C18.95 15 23.9 15 29 15 C29 18.63 29 22.26 29 26 C19.43 26 9.86 26 0 26 C0 17.42 0 8.84 0 0 Z M1 1 C1 8.92 1 16.84 1 25 C9.91 25 18.82 25 28 25 C27.67 22.69 27.34 20.38 27 18 C22.05 18 17.1 18 12 18 C12.33 17.34 12.66 16.68 13 16 C13.0716735 13.44842345 13.09308442 10.92527029 13.0625 8.375 C13.05798828 7.66859375 13.05347656 6.9621875 13.04882812 6.234375 C13.03703875 4.48954725 13.01910324 2.744763 13 1 C9.04 1 5.08 1 1 1 Z " fill="#3F3F3F" transform="translate(297,214)"/>
<path d="M0 0 C3.26023324 0.22484367 4.93132641 0.5260489 7.625 2.25 C7.8203125 8.3046875 7.8203125 8.3046875 7.625 10.25 C5.625 12.25 5.625 12.25 3.53125 12.515625 C2.7371875 12.51046875 1.943125 12.5053125 1.125 12.5 C0.3309375 12.50515625 -0.463125 12.5103125 -1.28125 12.515625 C-3.375 12.25 -3.375 12.25 -5.375 10.25 C-5.640625 8.375 -5.640625 8.375 -5.625 6.25 C-5.63015625 5.54875 -5.6353125 4.8475 -5.640625 4.125 C-5.11792897 0.43538097 -3.47027257 0.25705723 0 0 Z " fill="#F4F4F4" transform="translate(262.375,14.75)"/>
<path d="M0 0 C8.25 0 16.5 0 25 0 C25 0.99 25 1.98 25 3 C13.615 2.505 13.615 2.505 2 2 C2 8.6 2 15.2 2 22 C4.64 22 7.28 22 10 22 C10 20.02 10 18.04 10 16 C12.64 16 15.28 16 18 16 C18 16.33 18 16.66 18 17 C15.69 17 13.38 17 11 17 C11.33 19.31 11.66 21.62 12 24 C8.04 24 4.08 24 0 24 C0 16.08 0 8.16 0 0 Z " fill="#858585" transform="translate(98,215)"/>
<path d="M0 0 C2.56929895 1.80683866 4.93501536 3.62230228 7 6 C7 9.1875 7 9.1875 6 12 C5.67 12.99 5.34 13.98 5 15 C2.02413102 17.01933967 -0.45451908 17.60532601 -4 17 C-6.8125 14.5 -6.8125 14.5 -9 12 C-8.34 10.68 -7.68 9.36 -7 8 C-6.01 8 -5.02 8 -4 8 C-3.01 9.485 -3.01 9.485 -2 11 C-0.68 11 0.64 11 2 11 C0.62845496 8.04590299 -0.98863724 5.55991624 -3 3 C-2.01 2.01 -1.02 1.02 0 0 Z " fill="#F3F3F3" transform="translate(213,31)"/>
<path d="M0 0 C1 1 1 1 1.0625 3.5625 C1.041875 4.366875 1.02125 5.17125 1 6 C-0.65 6.66 -2.3 7.32 -4 8 C-2.02 8 -0.04 8 2 8 C2 8.99 2 9.98 2 11 C-2.62 11.66 -7.24 12.32 -12 13 C-12 11.35 -12 9.7 -12 8 C-9.69 6.68 -7.38 5.36 -5 4 C-7.64 4.33 -10.28 4.66 -13 5 C-12.1875 3.0625 -12.1875 3.0625 -11 1 C-7.11651516 -0.29449495 -4.09302664 -0.13203312 0 0 Z " fill="#F4F4F4" transform="translate(252,16)"/>
<path d="M0 0 C6.27 0 12.54 0 19 0 C19 0.66 19 1.32 19 2 C13.39 2 7.78 2 2 2 C2 8.6 2 15.2 2 22 C4.64 22 7.28 22 10 22 C10 20.02 10 18.04 10 16 C12.97 16 15.94 16 19 16 C19 16.33 19 16.66 19 17 C16.36 17 13.72 17 11 17 C11.33 19.31 11.66 21.62 12 24 C8.04 24 4.08 24 0 24 C0 16.08 0 8.16 0 0 Z " fill="#868686" transform="translate(14,215)"/>
<path d="M0 0 C9.57 0 19.14 0 29 0 C29 3.3 29 6.6 29 10 C27 7 27 7 27 3 C18.75 3 10.5 3 2 3 C1.67 5.31 1.34 7.62 1 10 C0.67 10 0.34 10 0 10 C0 6.7 0 3.4 0 0 Z " fill="#666666" transform="translate(138,214)"/>
<path d="M0 0 C3.76085859 0.52234147 6.41126058 1.12362287 9 4 C9.61493392 8.15080398 9.41144077 10.28378829 7.3125 13.9375 C5 16 5 16 2.25 16.3125 C1.5075 16.209375 0.765 16.10625 0 16 C0.33 14.35 0.66 12.7 1 11 C2.32 11 3.64 11 5 11 C4.87822312 9.08533633 4.87822312 9.08533633 4 7 C1.52066803 5.22851628 1.52066803 5.22851628 -1 4 C-0.67 2.68 -0.34 1.36 0 0 Z " fill="#F4F4F4" transform="translate(200,47)"/>
<path d="M0 0 C4.53765835 2.70328583 4.53765835 2.70328583 5.9375 5.75 C6.16720086 8.46986695 6.07449756 11.01004872 5.9375 13.75 C5.2775 13.75 4.6175 13.75 3.9375 13.75 C3.834375 12.656875 3.73125 11.56375 3.625 10.4375 C2.89065172 6.30944323 2.89065172 6.30944323 -0.0625 3.75 C-3.56345311 2.58301563 -6.3747232 2.61731713 -10.0625 2.625 C-11.3 2.62242187 -12.5375 2.61984375 -13.8125 2.6171875 C-17.07480773 2.60008698 -17.07480773 2.60008698 -20.0625 3.75 C-19.75 1.8125 -19.75 1.8125 -19.0625 -0.25 C-13.18916728 -2.20777757 -5.81426321 -2.2908446 0 0 Z " fill="#797979" transform="translate(281.0625,215.25)"/>
<path d="M0 0 C-0.99 0.33 -1.98 0.66 -3 1 C-2.34 1.66 -1.68 2.32 -1 3 C-4.97801541 4.12909751 -8.95761148 5.25252445 -12.9375 6.375 C-14.05447266 6.69210938 -15.17144531 7.00921875 -16.32226562 7.3359375 C-22.51889118 9.08044206 -28.69957258 10.67711068 -35 12 C-32.2715211 9.8129506 -29.72665195 8.31640388 -26.48046875 7.02734375 C-25.62259766 6.68509766 -24.76472656 6.34285156 -23.88085938 5.99023438 C-22.54764648 5.46913086 -22.54764648 5.46913086 -21.1875 4.9375 C-19.87168945 4.4105957 -19.87168945 4.4105957 -18.52929688 3.87304688 C-4.34643201 -1.73857281 -4.34643201 -1.73857281 0 0 Z " fill="#909090" transform="translate(300,60)"/>
<path d="M0 0 C1.33978082 0.6536127 2.67379266 1.31926781 4 2 C4.99 2 5.98 2 7 2 C6.01 3.3303125 6.01 3.3303125 5 4.6875 C3.01139933 7.98111986 2.56264926 9.28251873 3 13 C2.67 12.01 2.34 11.02 2 10 C-0.64 10.33 -3.28 10.66 -6 11 C-3.64046906 8.64046906 -2.22104383 8.50858587 1 8 C0.67 6.35 0.34 4.7 0 3 C-6.33864123 2.578137 -6.33864123 2.578137 -12 5 C-12.33 5.66 -12.66 6.32 -13 7 C-10.03 6.34 -7.06 5.68 -4 5 C-6.83328987 7.83328987 -8.35446828 8.7191375 -12 10 C-12 9.34 -12 8.68 -12 8 C-12.66 8 -13.32 8 -14 8 C-14.3125 5.6875 -14.3125 5.6875 -14 3 C-10.04170124 -0.70292464 -5.14100874 -0.70815326 0 0 Z " fill="#707070" transform="translate(252,14)"/>
<path d="M0 0 C3.22623287 2.39365664 4.37219243 4.43991856 5 8.3125 C5.26935539 12.39996802 4.66822042 15.17397634 2.34375 18.55859375 C-1.02558202 22.17279002 -4.39427298 22.91157448 -9.12109375 23.171875 C-12.08808008 23.18585373 -15.03620603 23.13139973 -18 23 C-18 22.67 -18 22.34 -18 22 C-17.3709375 21.98582031 -16.741875 21.97164062 -16.09375 21.95703125 C-9.73887946 21.60291949 -4.81764524 20.35223304 0 16 C1.39888834 11.80333499 1.82028781 7.78533229 -0.0625 3.6875 C-0.371875 3.130625 -0.68125 2.57375 -1 2 C-0.67 1.34 -0.34 0.68 0 0 Z " fill="#636363" transform="translate(204,217)"/>
<path d="M0 0 C3.22623287 2.39365664 4.37219243 4.43991856 5 8.3125 C5.26935539 12.39996802 4.66822042 15.17397634 2.34375 18.55859375 C-1.02558202 22.17279002 -4.39427298 22.91157448 -9.12109375 23.171875 C-12.08808008 23.18585373 -15.03620603 23.13139973 -18 23 C-18 22.67 -18 22.34 -18 22 C-17.3709375 21.98582031 -16.741875 21.97164062 -16.09375 21.95703125 C-9.73887946 21.60291949 -4.81764524 20.35223304 0 16 C1.39888834 11.80333499 1.82028781 7.78533229 -0.0625 3.6875 C-0.371875 3.130625 -0.68125 2.57375 -1 2 C-0.67 1.34 -0.34 0.68 0 0 Z " fill="#636363" transform="translate(83,217)"/>
<path d="M0 0 C2.27521866 2.16687491 4.15794162 4.45620509 6 7 C7.65 6.34 9.3 5.68 11 5 C11 4.34 11 3.68 11 3 C11.99 3.33 12.98 3.66 14 4 C12.85343125 7.43970626 12.15481722 7.8782229 9.1875 9.75 C8.50042969 10.19859375 7.81335938 10.6471875 7.10546875 11.109375 C5 12 5 12 2.8828125 11.8515625 C-0.61483234 10.26964015 -1.42110162 7.39170763 -3 4 C-2.67 3.01 -2.34 2.02 -2 1 C-1.34 0.67 -0.68 0.34 0 0 Z " fill="#F5F5F5" transform="translate(221,25)"/>
<path d="M0 0 C0.33 0 0.66 0 1 0 C1 2.31 1 4.62 1 7 C-3.29 7 -7.58 7 -12 7 C-12 9.64 -12 12.28 -12 15 C-15.96 15 -19.92 15 -24 15 C-24 14.34 -24 13.68 -24 13 C-20.7 13 -17.4 13 -14 13 C-14 10.36 -14 7.72 -14 5 C-7.565 4.505 -7.565 4.505 -1 4 C-0.67 2.68 -0.34 1.36 0 0 Z " fill="#7A7A7A" transform="translate(243,224)"/>
<path d="M0 0 C3 0.25 3 0.25 5 2.25 C5.25 5.25 5.25 5.25 5 8.25 C3 10.25 3 10.25 0.0625 10.5625 C-3 10.25 -3 10.25 -4.9375 9.0625 C-6 7.25 -6 7.25 -5.8125 4.6875 C-4.61374094 1.09122283 -3.8124642 0.31770535 0 0 Z M-2 3.25 C-2 4.57 -2 5.89 -2 7.25 C-0.35 6.92 1.3 6.59 3 6.25 C2.67 5.26 2.34 4.27 2 3.25 C0.68 3.25 -0.64 3.25 -2 3.25 Z " fill="#5D5D5D" transform="translate(192,221.75)"/>
<path d="M0 0 C3 0.25 3 0.25 5 2.25 C5.25 5.25 5.25 5.25 5 8.25 C3 10.25 3 10.25 0.0625 10.5625 C-3 10.25 -3 10.25 -4.9375 9.0625 C-6 7.25 -6 7.25 -5.8125 4.6875 C-4.61374094 1.09122283 -3.8124642 0.31770535 0 0 Z M-2 3.25 C-2 4.57 -2 5.89 -2 7.25 C-0.35 6.92 1.3 6.59 3 6.25 C2.67 5.26 2.34 4.27 2 3.25 C0.68 3.25 -0.64 3.25 -2 3.25 Z " fill="#5D5D5D" transform="translate(71,221.75)"/>
<path d="M0 0 C2 2 2 2 2.3125 5 C2.1578125 6.485 2.1578125 6.485 2 8 C-1.8503105 10.56687367 -3.58569763 9.83288724 -8 9 C-9.3260274 3.57534247 -9.3260274 3.57534247 -7.9375 1.125 C-5.17898298 -0.47671956 -3.1304173 -0.33302312 0 0 Z M-6 3 C-6 4.32 -6 5.64 -6 7 C-4.35 7 -2.7 7 -1 7 C-1 5.68 -1 4.36 -1 3 C-2.65 3 -4.3 3 -6 3 Z " fill="#828282" transform="translate(378,222)"/>
<path d="M0 0 C3.0625 0.3125 3.0625 0.3125 5 1.5 C6.0625 3.3125 6.0625 3.3125 5.875 5.875 C5.0625 8.3125 5.0625 8.3125 3.0625 10.3125 C0.0625 10.5625 0.0625 10.5625 -2.9375 10.3125 C-4.9375 8.3125 -4.9375 8.3125 -5.1875 5.3125 C-4.84687504 1.2250005 -4.07761768 0.43378911 0 0 Z M-1.9375 3.3125 C-1.9375 4.6325 -1.9375 5.9525 -1.9375 7.3125 C-0.2875 7.3125 1.3625 7.3125 3.0625 7.3125 C3.0625 5.9925 3.0625 4.6725 3.0625 3.3125 C1.4125 3.3125 -0.2375 3.3125 -1.9375 3.3125 Z " fill="#7C7C7C" transform="translate(270.9375,221.6875)"/>
<path d="M0 0 C0.33 0 0.66 0 1 0 C1.061875 0.763125 1.12375 1.52625 1.1875 2.3125 C2.2582969 5.85436667 3.90960169 6.17745741 7 8 C7 9.32 7 10.64 7 12 C5.68 12 4.36 12 3 12 C2.67 13.65 2.34 15.3 2 17 C6.82442184 15.73053486 6.82442184 15.73053486 10 12 C10.66 12 11.32 12 12 12 C10.75023244 15.65316671 10.32901247 16.78065836 7 19 C3.375 18.75 3.375 18.75 0 18 C-0.33 17.34 -0.66 16.68 -1 16 C1.45454545 10.27272727 1.45454545 10.27272727 4 9 C2.02 8.01 0.04 7.02 -2 6 C-1.34 4.02 -0.68 2.04 0 0 Z " fill="#505050" transform="translate(198,46)"/>
<path d="M0 0 C0 1.65 0 3.3 0 5 C-2.64 5.33 -5.28 5.66 -8 6 C-8 6.99 -8 7.98 -8 9 C-8.99 9 -9.98 9 -11 9 C-11.33 6.69 -11.66 4.38 -12 2 C-10.37548581 1.66430703 -8.75037083 1.3315204 -7.125 1 C-6.22007812 0.814375 -5.31515625 0.62875 -4.3828125 0.4375 C-2 0 -2 0 0 0 Z " fill="#F9F9F9" transform="translate(204,87)"/>
<path d="M0 0 C0.33 0 0.66 0 1 0 C1 6.6 1 13.2 1 20 C3.64 20 6.28 20 9 20 C9 18.02 9 16.04 9 14 C11.64 14 14.28 14 17 14 C17 14.33 17 14.66 17 15 C14.69 15 12.38 15 10 15 C10.33 17.31 10.66 19.62 11 22 C7.04 22 3.08 22 -1 22 C-0.67 14.74 -0.34 7.48 0 0 Z " fill="#919191" transform="translate(99,217)"/>
<path d="M0 0 C3.3 0 6.6 0 10 0 C10 0.66 10 1.32 10 2 C7.36 2 4.72 2 2 2 C2 8.6 2 15.2 2 22 C1.34 22 0.68 22 0 22 C0 14.74 0 7.48 0 0 Z " fill="#979797" transform="translate(336,215)"/>
<path d="M0 0 C-5.16047946 3.44031964 -10.19534409 5.04349587 -16.125 6.6875 C-17.36056641 7.04424805 -17.36056641 7.04424805 -18.62109375 7.40820312 C-19.40871094 7.62798828 -20.19632812 7.84777344 -21.0078125 8.07421875 C-21.72598145 8.27619873 -22.44415039 8.47817871 -23.18408203 8.6862793 C-25 9 -25 9 -27 8 C-21.03394859 5.45948247 -15.04980095 2.96001089 -9 0.625 C-8.13375 0.28726563 -7.2675 -0.05046875 -6.375 -0.3984375 C-3.8054855 -1.04926848 -2.46736127 -0.8795686 0 0 Z " fill="#767676" transform="translate(287,77)"/>
<path d="M0 0 C4.13998349 -0.32470459 6.33999001 -0.4304413 9.875 1.875 C12.5724228 4.5724228 12.98570111 5.28505542 13.0625 9.125 C13.041875 10.07375 13.02125 11.0225 13 12 C12.01 12 11.02 12 10 12 C9.67 9.69 9.34 7.38 9 5 C6.03 4.01 3.06 3.02 0 2 C0 1.34 0 0.68 0 0 Z " fill="#707070" transform="translate(33,215)"/>
<path d="M0 0 C0.33 0 0.66 0 1 0 C2.27870002 5.69602737 1.76677133 8.86171038 -1 14 C-2.82814755 16.49292848 -3.65552182 16.91187768 -6.6875 17.6875 C-7.450625 17.790625 -8.21375 17.89375 -9 18 C-9 17.01 -9 16.02 -9 15 C-8.236875 14.835 -7.47375 14.67 -6.6875 14.5 C-3.18495804 12.54509286 -2.75218013 10.74510954 -1.55859375 7.04296875 C-0.92058373 4.70954748 -0.37357433 2.39087569 0 0 Z " fill="#666666" transform="translate(390,221)"/>
<path d="M0 0 C0.598125 0.99 1.19625 1.98 1.8125 3 C2.534375 3.99 3.25625 4.98 4 6 C6.6704053 6.50241322 6.6704053 6.50241322 9 6 C7.35 7.32 5.7 8.64 4 10 C3.38125 9.21625 2.7625 8.4325 2.125 7.625 C0.10141339 5.03162353 0.10141339 5.03162353 -2 3 C-2.99 3.495 -2.99 3.495 -4 4 C-3.67 5.98 -3.34 7.96 -3 10 C-4.65 8.35 -6.3 6.7 -8 5 C-3.16129032 0 -3.16129032 0 0 0 Z " fill="#575757" transform="translate(223,23)"/>
<path d="M0 0 C1.32 0.33 2.64 0.66 4 1 C3.835 1.5775 3.67 2.155 3.5 2.75 C2.85537969 5.26664369 2.85537969 5.26664369 3 9 C3.99 9 4.98 9 6 9 C6 8.01 6 7.02 6 6 C8.97 6 11.94 6 15 6 C15 6.33 15 6.66 15 7 C13.02 7.33 11.04 7.66 9 8 C8.67 8.99 8.34 9.98 8 11 C6.02 11 4.04 11 2 11 C0.80712589 7.12315913 0 4.08378077 0 0 Z " fill="#5E5E5E" transform="translate(190,87)"/>
<path d="M0 0 C1.32 0.66 2.64 1.32 4 2 C4 5.3 4 8.6 4 12 C2.34385343 12.38218767 0.67542976 12.71395102 -1 13 C-2.66561399 11.33438601 -2.17115945 9.34037295 -2.1875 7.0625 C-2.20167969 6.16660156 -2.21585938 5.27070313 -2.23046875 4.34765625 C-2 2 -2 2 0 0 Z M-1 4 C-1 5.98 -1 7.96 -1 10 C0.32 10 1.64 10 3 10 C3 8.02 3 6.04 3 4 C1.68 4 0.36 4 -1 4 Z " fill="#616161" transform="translate(138,139)"/>
<path d="M0 0 C0.350625 0.66 0.70125 1.32 1.0625 2 C1.701875 2.66 2.34125 3.32 3 4 C4.11375 4 5.2275 4 6.375 4 C10 4 10 4 12.9375 5.875 C15 8 15 8 15 10 C12.50638429 8.79618552 10.31856917 7.54571278 8 6 C5.87183587 6.15688424 5.87183587 6.15688424 4 7 C3.67 7.66 3.34 8.32 3 9 C2.01 9 1.02 9 0 9 C0 6.03 0 3.06 0 0 Z " fill="#555555" transform="translate(287,22)"/>
<path d="M0 0 C0.66 0.66 1.32 1.32 2 2 C2.515625 1.649375 3.03125 1.29875 3.5625 0.9375 C6.99936353 -0.38437059 9.4484227 0.22511041 13 1 C13.99 1.66 14.98 2.32 16 3 C16 3.66 16 4.32 16 5 C15.113125 4.67 14.22625 4.34 13.3125 4 C10.2526574 3.07627393 8.15026528 2.56246316 5 3 C4.01 4.485 4.01 4.485 3 6 C2.34 6 1.68 6 1 6 C1 7.65 1 9.3 1 11 C0.34 10.34 -0.32 9.68 -1 9 C-0.9765625 6.8359375 -0.9765625 6.8359375 -0.625 4.375 C-0.51414062 3.55773437 -0.40328125 2.74046875 -0.2890625 1.8984375 C-0.19367188 1.27195312 -0.09828125 0.64546875 0 0 Z " fill="#505050" transform="translate(271,17)"/>
<path d="M0 0 C0.66 0.33 1.32 0.66 2 1 C1.43505063 4.95464558 0.58172823 7.90192613 -2 11 C-5.375 12.125 -5.375 12.125 -9 12 C-11.9375 9.5625 -11.9375 9.5625 -14 7 C-13.195625 7.2165625 -13.195625 7.2165625 -12.375 7.4375 C-9.60084173 8.09453748 -6.81474612 8.55219948 -4 9 C-3.67 8.01 -3.34 7.02 -3 6 C-2.34 5.67 -1.68 5.34 -1 5 C-0.34444881 2.47266765 -0.34444881 2.47266765 0 0 Z " fill="#5B5B5B" transform="translate(302,32)"/>
<path d="M0 0 C3.3 0 6.6 0 10 0 C10 1.32 10 2.64 10 4 C6.7 4 3.4 4 0 4 C0 2.68 0 1.36 0 0 Z " fill="#868686" transform="translate(108,222)"/>
<path d="M0 0 C2.40176988 1.7819583 3.80184477 3.23232171 4.55859375 6.1640625 C5.38434738 12.42347893 5.38434738 12.42347893 3 16 C2.79503906 15.15695313 2.59007812 14.31390625 2.37890625 13.4453125 C2.10949219 12.34960938 1.84007812 11.25390625 1.5625 10.125 C1.29566406 9.03445312 1.02882812 7.94390625 0.75390625 6.8203125 C0.1213522 4.07515279 0.1213522 4.07515279 -1 2 C-0.67 1.34 -0.34 0.68 0 0 Z " fill="#5D5D5D" transform="translate(204,217)"/>
<path d="M0 0 C2.40176988 1.7819583 3.80184477 3.23232171 4.55859375 6.1640625 C5.38434738 12.42347893 5.38434738 12.42347893 3 16 C2.79503906 15.15695313 2.59007813 14.31390625 2.37890625 13.4453125 C2.10949219 12.34960938 1.84007813 11.25390625 1.5625 10.125 C1.29566406 9.03445312 1.02882813 7.94390625 0.75390625 6.8203125 C0.1213522 4.07515279 0.1213522 4.07515279 -1 2 C-0.67 1.34 -0.34 0.68 0 0 Z " fill="#5D5D5D" transform="translate(83,217)"/>
<path d="M0 0 C4.29 0 8.58 0 13 0 C13 0.99 13 1.98 13 3 C9.04 3 5.08 3 1 3 C0.67 2.01 0.34 1.02 0 0 Z " fill="#747474" transform="translate(368,237)"/>
<path d="M0 0 C0.33 0 0.66 0 1 0 C1 2.31 1 4.62 1 7 C1.99 7.33 2.98 7.66 4 8 C8.77272727 12.31818182 8.77272727 12.31818182 10 16 C6.15903871 15.12705425 4.29830018 14.3297002 1.625 11.375 C-0.4093357 7.14984124 -0.31939183 4.63118155 0 0 Z " fill="#5F5F5F" transform="translate(358,223)"/>
<path d="M0 0 C2.97 0 5.94 0 9 0 C9 1.32 9 2.64 9 4 C6.03 4 3.06 4 0 4 C0 2.68 0 1.36 0 0 Z " fill="#818181" transform="translate(25,222)"/>
<path d="M0 0 C1.04220703 0.47566406 1.04220703 0.47566406 2.10546875 0.9609375 C5.26188644 2.09401052 7.97280167 2.40480011 11.3125 2.625 C12.91544922 2.73714844 12.91544922 2.73714844 14.55078125 2.8515625 C15.35902344 2.90054688 16.16726562 2.94953125 17 3 C16.67 3.66 16.34 4.32 16 5 C13.89646505 5.0810206 11.79204048 5.13919907 9.6875 5.1875 C8.51574219 5.22230469 7.34398437 5.25710937 6.13671875 5.29296875 C3 5 3 5 1.08203125 3.61328125 C0 2 0 2 0 0 Z " fill="#848484" transform="translate(180,234)"/>
<path d="M0 0 C1.04220703 0.47566406 1.04220703 0.47566406 2.10546875 0.9609375 C5.26188644 2.09401052 7.97280167 2.40480011 11.3125 2.625 C12.91544922 2.73714844 12.91544922 2.73714844 14.55078125 2.8515625 C15.35902344 2.90054688 16.16726562 2.94953125 17 3 C16.67 3.66 16.34 4.32 16 5 C13.89646505 5.0810206 11.79204048 5.13919907 9.6875 5.1875 C8.51574219 5.22230469 7.34398438 5.25710937 6.13671875 5.29296875 C3 5 3 5 1.08203125 3.61328125 C0 2 0 2 0 0 Z " fill="#848484" transform="translate(59,234)"/>
<path d="M0 0 C2.70502403 0.87730509 4.68400006 1.71668971 6.8125 3.625 C8.5799191 7.15983819 8.19629067 10.07418669 8 14 C7.34 14 6.68 14 6 14 C5.9071875 12.453125 5.9071875 12.453125 5.8125 10.875 C4.81307934 6.10853222 3.25656939 4.50707473 0 1 C0 0.67 0 0.34 0 0 Z " fill="#717171" transform="translate(279,215)"/>
<path d="M0 0 C2.64 0 5.28 0 8 0 C8.1875 2.875 8.1875 2.875 8 6 C5 8 5 8 2.875 7.75 C1 7 1 7 0 5 C1.65 4.67 3.3 4.34 5 4 C5 3.34 5 2.68 5 2 C3.35 1.67 1.7 1.34 0 1 C0 0.67 0 0.34 0 0 Z " fill="#626262" transform="translate(372,224)"/>
<path d="M0 0 C0.33 0 0.66 0 1 0 C1.3267114 4.73731534 1.43181699 7.15178806 -0.75 11.4375 C-2.94435756 13.93662944 -3.75110346 14.76793596 -7 15 C-5.50079488 11.88626628 -3.91847864 8.87771795 -2 6 C-1.34 6 -0.68 6 0 6 C0 4.02 0 2.04 0 0 Z " fill="#555555" transform="translate(287,223)"/>
<path d="M0 0 C1.78987319 1.00860007 3.56117681 2.05085511 5.3125 3.125 C6.19550781 3.66382812 7.07851563 4.20265625 7.98828125 4.7578125 C8.98408203 5.37269531 8.98408203 5.37269531 10 6 C9.67 6.66 9.34 7.32 9 8 C6.72791794 6.8774654 4.45732355 5.75208479 2.1875 4.625 C1.54490234 4.30789062 0.90230469 3.99078125 0.24023438 3.6640625 C-2.63194461 2.23541389 -5.3267821 0.78214527 -8 -1 C-4.28226957 -2.23924348 -3.46158771 -1.64642724 0 0 Z " fill="#767676" transform="translate(260,93)"/>
<path d="M0 0 C5.91969002 1.75990784 11.41634992 4.39694605 17 7 C16.01 7.66 15.02 8.32 14 9 C10.32365627 7.94703739 7.33970459 6.06510741 4.1875 3.9375 C3.39730469 3.41027344 2.60710937 2.88304688 1.79296875 2.33984375 C1.20128906 1.89769531 0.60960937 1.45554687 0 1 C0 0.67 0 0.34 0 0 Z " fill="#6E6E6E" transform="translate(214,69)"/>
<path d="M0 0 C5.75 1.625 5.75 1.625 8 5 C8.125 8.1875 8.125 8.1875 8 11 C7.566875 10.401875 7.13375 9.80375 6.6875 9.1875 C4.67444353 6.57798235 2.96480355 4.48240178 0 3 C0 2.01 0 1.02 0 0 Z " fill="#6F6F6F" transform="translate(382,215)"/>
<path d="M0 0 C-0.99 0.33 -1.98 0.66 -3 1 C-2.34 1.66 -1.68 2.32 -1 3 C-4.67410785 4.17571451 -8.16929183 4.07366746 -12 4 C-11.67 3.01 -11.34 2.02 -11 1 C-7.08609399 -0.47694566 -4.00565371 -1.60226148 0 0 Z " fill="#B8B8B8" transform="translate(300,60)"/>
<path d="M0 0 C2.375 0.625 2.375 0.625 5 2 C6.3125 5.125 6.3125 5.125 7 8 C6.01 8 5.02 8 4 8 C3.87625 8.804375 3.7525 9.60875 3.625 10.4375 C3.41875 11.283125 3.2125 12.12875 3 13 C2.01 13.495 2.01 13.495 1 14 C1.09539062 13.24074219 1.19078125 12.48148438 1.2890625 11.69921875 C1.39992187 10.70535156 1.51078125 9.71148437 1.625 8.6875 C1.74101562 7.70136719 1.85703125 6.71523438 1.9765625 5.69921875 C2.25476995 2.77342584 2.25476995 2.77342584 0 0 Z " fill="#494949" transform="translate(217,32)"/>
<path d="M0 0 C0.66 0 1.32 0 2 0 C0.75023244 3.65316671 0.32901247 4.78065836 -3 7 C-6.625 6.75 -6.625 6.75 -10 6 C-10.33 5.34 -10.66 4.68 -11 4 C-10.34 3.34 -9.68 2.68 -9 2 C-9 2.99 -9 3.98 -9 5 C-3.59212615 3.90213575 -3.59212615 3.90213575 0 0 Z " fill="#494949" transform="translate(208,58)"/>
<path d="M0 0 C0.99 0.99 1.98 1.98 3 3 C1.02 3.99 1.02 3.99 -1 5 C-0.67 6.98 -0.34 8.96 0 11 C-2.43270079 10.05830937 -3.72437686 9.47018066 -5.0625 7.1875 C-5 5 -5 5 -2.5625 2.25 C-1.716875 1.5075 -0.87125 0.765 0 0 Z " fill="#494949" transform="translate(206,36)"/>
<path d="M0 0 C-0.99 0.33 -1.98 0.66 -3 1 C-2.01 1.66 -1.02 2.32 0 3 C-6.435 3.495 -6.435 3.495 -13 4 C-10 2 -10 2 -7 2 C-7 1.34 -7 0.68 -7 0 C-3.86650268 -1.04449911 -3.01031744 -0.93423645 0 0 Z " fill="#B2B2B2" transform="translate(294,75)"/>
<path d="M0 0 C0 0.99 0 1.98 0 3 C-3.96 3 -7.92 3 -12 3 C-12.33 2.34 -12.66 1.68 -13 1 C-11.20843648 0.83222817 -9.4167455 0.66581706 -7.625 0.5 C-6.62726563 0.4071875 -5.62953125 0.314375 -4.6015625 0.21875 C-2 0 -2 0 0 0 Z " fill="#898989" transform="translate(280,236)"/>
<path d="M0 0 C0.969375 0.474375 1.93875 0.94875 2.9375 1.4375 C7.19836149 3.28852999 11.40015606 3.69751593 16 4 C16 4.33 16 4.66 16 5 C14.06257659 5.02703381 12.12504521 5.04641125 10.1875 5.0625 C9.10855469 5.07410156 8.02960938 5.08570313 6.91796875 5.09765625 C4 5 4 5 1 4 C0.3125 1.9375 0.3125 1.9375 0 0 Z " fill="#5E5E5E" transform="translate(261,235)"/>
<path d="M0 0 C0.66 0 1.32 0 2 0 C2.33 1.65 2.66 3.3 3 5 C5.64 4.67 8.28 4.34 11 4 C10.01 5.485 10.01 5.485 9 7 C5.80420369 7.407974 3.85022579 7.56681719 1.125 5.75 C0 4 0 4 0 0 Z " fill="#8D8D8D" transform="translate(186,225)"/>
<path d="M0 0 C0.66 0 1.32 0 2 0 C2.33 1.65 2.66 3.3 3 5 C5.64 4.67 8.28 4.34 11 4 C10.01 5.485 10.01 5.485 9 7 C5.80420369 7.407974 3.85022579 7.56681719 1.125 5.75 C0 4 0 4 0 0 Z " fill="#8D8D8D" transform="translate(65,225)"/>
<path d="M0 0 C0.66 0.33 1.32 0.66 2 1 C0.02 4.96 -1.96 8.92 -4 13 C-4.66 12.01 -5.32 11.02 -6 10 C-4.02 6.7 -2.04 3.4 0 0 Z " fill="#646464" transform="translate(256,58)"/>
<path d="M0 0 C1.65493515 2.97888328 2.38490879 5.66093343 3 9 C3.33 9.66 3.66 10.32 4 11 C2.68 10.67 1.36 10.34 0 10 C-1.125 6.6875 -1.125 6.6875 -2 3 C-1.34 2.01 -0.68 1.02 0 0 Z " fill="#6E6E6E" transform="translate(286,28)"/>
<path d="M0 0 C0.33 0.66 0.66 1.32 1 2 C1.66 2.33 2.32 2.66 3 3 C0.69 5.31 -1.62 7.62 -4 10 C-4.33 9.34 -4.66 8.68 -5 8 C-4.00390625 6.0546875 -4.00390625 6.0546875 -2.5625 3.875 C-2.08941406 3.15054688 -1.61632812 2.42609375 -1.12890625 1.6796875 C-0.75636719 1.12539062 -0.38382812 0.57109375 0 0 Z " fill="#737373" transform="translate(462,163)"/>
<path d="M0 0 C3.91402949 1.26941497 5.79072873 2.51167694 8 6 C7.67 6.66 7.34 7.32 7 8 C5.53515625 6.66536458 4.0703125 5.33072917 2.60546875 3.99609375 C2.07566406 3.66738281 1.54585937 3.33867188 1 3 C0.01 3.33 -0.98 3.66 -2 4 C-1.34 2.68 -0.68 1.36 0 0 Z " fill="#565656" transform="translate(212,29)"/>
<path d="M0 0 C6.15234375 -0.09765625 6.15234375 -0.09765625 8 0 C9 1 9 1 9.0625 4.0625 C9.041875 5.031875 9.02125 6.00125 9 7 C8.34 6.67 7.68 6.34 7 6 C6.375 3.4375 6.375 3.4375 6 1 C4.02 1.33 2.04 1.66 0 2 C0 1.34 0 0.68 0 0 Z " fill="#6A6A6A" transform="translate(109,232)"/>
<path d="M0 0 C3.375 -0.125 3.375 -0.125 7 0 C7.66 0.66 8.32 1.32 9 2 C6.69 2 4.38 2 2 2 C2 3.65 2 5.3 2 7 C1.67 7 1.34 7 1 7 C0.67 4.69 0.34 2.38 0 0 Z " fill="#595959" transform="translate(25,232)"/>
<path d="M0 0 C0.99 0.33 1.98 0.66 3 1 C2 4 2 4 -1.0625 5.6875 C-2.031875 6.120625 -3.00125 6.55375 -4 7 C-3.34 5.35 -2.68 3.7 -2 2 C-1.34 2 -0.68 2 0 2 C0 1.34 0 0.68 0 0 Z " fill="#EDEDED" transform="translate(232,28)"/>
<path d="M0 0 C0.66 0 1.32 0 2 0 C2.33 2.64 2.66 5.28 3 8 C2.67 7.01 2.34 6.02 2 5 C-0.01508358 4.26676204 -0.01508358 4.26676204 -2 4 C-1.34 2.68 -0.68 1.36 0 0 Z " fill="#737373" transform="translate(126,227)"/>
<path d="M0 0 C0 0.66 0 1.32 0 2 C-4.15267176 5.11450382 -4.15267176 5.11450382 -7.3125 4.6875 C-7.869375 4.460625 -8.42625 4.23375 -9 4 C-8.67 3.34 -8.34 2.68 -8 2 C-6.0625 1.4375 -6.0625 1.4375 -4 1 C-2 0 -2 0 0 0 Z " fill="#6B6B6B" transform="translate(231,34)"/>
<path d="M0 0 C0.66 0.33 1.32 0.66 2 1 C1.67 2.65 1.34 4.3 1 6 C-1.31 5.67 -3.62 5.34 -6 5 C-5.67 4.34 -5.34 3.68 -5 3 C-3.35 3.33 -1.7 3.66 0 4 C0 2.68 0 1.36 0 0 Z " fill="#555555" transform="translate(274,225)"/>
<path d="M0 0 C2.97 0.495 2.97 0.495 6 1 C6.33 1.99 6.66 2.98 7 4 C2.25 3.125 2.25 3.125 0 2 C0 1.34 0 0.68 0 0 Z " fill="#797979" transform="translate(197,215)"/>
<path d="M0 0 C2.97 0.495 2.97 0.495 6 1 C6.33 1.99 6.66 2.98 7 4 C2.25 3.125 2.25 3.125 0 2 C0 1.34 0 0.68 0 0 Z " fill="#797979" transform="translate(76,215)"/>
<path d="M0 0 C0.66 0.99 1.32 1.98 2 3 C-2.75 7.875 -2.75 7.875 -5 9 C-3.50163895 5.88801935 -1.80066242 2.9465385 0 0 Z " fill="#838383" transform="translate(437,171)"/>
<path d="M0 0 C0.99 0 1.98 0 3 0 C2.67 1.65 2.34 3.3 2 5 C1.01 5 0.02 5 -1 5 C-0.67 3.35 -0.34 1.7 0 0 Z " fill="#5E5E5E" transform="translate(279,23)"/>
<path d="M0 0 C1.32 0 2.64 0 4 0 C3.67 1.65 3.34 3.3 3 5 C2.01 5 1.02 5 0 5 C0 3.35 0 1.7 0 0 Z " fill="#6C6C6C" transform="translate(262,19)"/>
<path d="M0 0 C0.99 0 1.98 0 3 0 C2.25 1.9375 2.25 1.9375 1 4 C-1.125 4.75 -1.125 4.75 -3 5 C-1.125 1.125 -1.125 1.125 0 0 Z " fill="#646464" transform="translate(283,233)"/>
<path d="M0 0 C2.31 0 4.62 0 7 0 C7 0.99 7 1.98 7 3 C4.69 2.67 2.38 2.34 0 2 C0 1.34 0 0.68 0 0 Z " fill="#767676" transform="translate(116,215)"/>
<path d="M0 0 C1.32 0.33 2.64 0.66 4 1 C3.67 1.33 3.34 1.66 3 2 C2.76924918 3.34747084 2.58846937 4.70377565 2.4375 6.0625 C2.2209375 8.0115625 2.2209375 8.0115625 2 10 C1.67 10 1.34 10 1 10 C0.67 6.7 0.34 3.4 0 0 Z " fill="#414141" transform="translate(190,87)"/>
<path d="M0 0 C2.16874252 0.50603992 3.99967627 0.99983813 6 2 C6 2.66 6 3.32 6 4 C7.32 4.33 8.64 4.66 10 5 C7.8125 5.3125 7.8125 5.3125 5 5 C2.1875 2.5 2.1875 2.5 0 0 Z " fill="#4B4B4B" transform="translate(288,39)"/>
<path d="M0 0 C2.64 0.33 5.28 0.66 8 1 C6.35 2.32 4.7 3.64 3 5 C1.5 3.625 1.5 3.625 0 2 C0 1.34 0 0.68 0 0 Z " fill="#686868" transform="translate(224,28)"/>
<path d="M0 0 C2 1 2 1 2 1 Z " fill="#262626" transform="translate(263,72)"/>
</svg>
